<svg width="72" height="72" viewBox="0 0 72 72" fill="none" xmlns="http://www.w3.org/2000/svg">
<rect width="72" height="72" rx="36" fill="#F9F9F9"/>
<path d="M51.2969 25.1109L36.2969 20.1109C36.1042 20.0466 35.8958 20.0466 35.7031 20.1109L20.7031 25.1109C20.5166 25.1732 20.3544 25.2926 20.2394 25.4521C20.1244 25.6117 20.0625 25.8033 20.0625 26V38.5C20.0625 38.7486 20.1613 38.9871 20.3371 39.1629C20.5129 39.3387 20.7514 39.4375 21 39.4375C21.2486 39.4375 21.4871 39.3387 21.6629 39.1629C21.8387 38.9871 21.9375 38.7486 21.9375 38.5V27.3L27.9812 29.3156C27.2191 30.442 26.7026 31.7162 26.4655 33.0553C26.2283 34.3944 26.2758 35.7685 26.6048 37.088C26.9337 38.4076 27.5368 39.6431 28.3749 40.7142C29.2129 41.7853 30.2671 42.6679 31.4688 43.3047C28.4609 44.325 25.8438 46.3656 23.9688 49.2422C23.861 49.4486 23.8339 49.6878 23.8927 49.9131C23.9516 50.1384 24.0922 50.3337 24.2872 50.461C24.4822 50.5884 24.7176 50.6386 24.9476 50.6019C25.1775 50.5652 25.3856 50.4442 25.5312 50.2625C27.9484 46.5609 31.7625 44.4375 36 44.4375C40.2375 44.4375 44.0516 46.5609 46.4688 50.2625C46.6135 50.448 46.8228 50.5724 47.055 50.6107C47.2872 50.6491 47.5253 50.5988 47.7221 50.4697C47.9189 50.3406 48.0599 50.1422 48.1172 49.9139C48.1745 49.6857 48.1438 49.4442 48.0312 49.2375C46.1562 46.3656 43.5422 44.325 40.5312 43.3C41.7323 42.6626 42.7857 41.7794 43.6229 40.708C44.4602 39.6366 45.0625 38.401 45.3907 37.0815C45.719 35.7619 45.7657 34.3881 45.528 33.0493C45.2903 31.7105 44.7734 30.4368 44.0109 29.3109L51.2969 26.8891C51.4833 26.8267 51.6454 26.7073 51.7603 26.5477C51.8751 26.3882 51.9369 26.1966 51.9369 26C51.9369 25.8034 51.8751 25.6118 51.7603 25.4523C51.6454 25.2927 51.4833 25.1733 51.2969 25.1109ZM43.8125 34.75C43.8131 35.9949 43.5161 37.2219 42.9464 38.3288C42.3767 39.4356 41.5507 40.3904 40.5373 41.1134C39.5239 41.8363 38.3523 42.3067 37.1203 42.4852C35.8883 42.6637 34.6314 42.5452 33.4545 42.1396C32.2775 41.734 31.2145 41.053 30.3541 40.1533C29.4936 39.2537 28.8606 38.1614 28.5078 36.9676C28.155 35.7737 28.0926 34.5129 28.3258 33.29C28.559 32.0672 29.081 30.9177 29.8484 29.9375L35.7031 31.8891C35.8958 31.9534 36.1042 31.9534 36.2969 31.8891L42.1516 29.9375C43.2294 31.3099 43.8144 33.0049 43.8125 34.75ZM36 30.0125L23.9688 26L36 21.9875L48.0312 26L36 30.0125Z" fill="#929292"/>
</svg>
