<svg width="19" height="19" viewBox="0 0 19 19" fill="none" xmlns="http://www.w3.org/2000/svg">
<g clip-path="url(#clip0_105_145)">
<path d="M18.174 9.71051C18.174 8.93164 18.1121 8.36326 17.9782 7.77385H9.27246V11.2893H14.3825C14.2796 12.1629 13.7232 13.4786 12.4869 14.3627L12.4695 14.4804L15.2221 16.6589L15.4128 16.6783C17.1643 15.0258 18.174 12.5944 18.174 9.71051Z" fill="#4285F4"/>
<path d="M9.27238 18.9729C11.7759 18.9729 13.8776 18.1308 15.4128 16.6783L12.4868 14.3627C11.7038 14.9205 10.6529 15.31 9.27238 15.31C6.82036 15.31 4.73924 13.6575 3.99738 11.3735L3.88864 11.383L1.02644 13.6459L0.989014 13.7522C2.51379 16.8467 5.64581 18.9729 9.27238 18.9729Z" fill="#34A853"/>
<path d="M3.9974 11.3735C3.80165 10.7841 3.68836 10.1525 3.68836 9.50001C3.68836 8.84739 3.80165 8.21589 3.9871 7.62648L3.98191 7.50095L1.08385 5.20163L0.989033 5.24771C0.360597 6.53182 0 7.97383 0 9.50001C0 11.0262 0.360597 12.4681 0.989033 13.7522L3.9974 11.3735Z" fill="#FBBC05"/>
<path d="M9.27238 3.68996C11.0135 3.68996 12.188 4.45831 12.8577 5.1004L15.4746 2.49009C13.8674 0.96391 11.7759 0.0271454 9.27238 0.0271454C5.64581 0.0271454 2.51379 2.15326 0.989014 5.2477L3.98708 7.62647C4.73924 5.34247 6.82036 3.68996 9.27238 3.68996Z" fill="#EB4335"/>
</g>
<defs>
<clipPath id="clip0_105_145">
<rect width="18.1739" height="19" rx="9.08696" fill="white"/>
</clipPath>
</defs>
</svg>
