<svg width="24" height="24" viewBox="0 0 24 24" fill="none" xmlns="http://www.w3.org/2000/svg">
<path fill-rule="evenodd" clip-rule="evenodd" d="M3.29064 3.30897C3.15208 3.25073 2.99922 3.23545 2.85188 3.26514C2.70454 3.29482 2.56952 3.36809 2.46432 3.47544C2.35912 3.58279 2.28861 3.71928 2.26192 3.86719C2.23523 4.0151 2.2536 4.16762 2.31464 4.30497L5.40764 11.25H12.9996C13.1986 11.25 13.3893 11.329 13.53 11.4696C13.6706 11.6103 13.7496 11.8011 13.7496 12C13.7496 12.1989 13.6706 12.3896 13.53 12.5303C13.3893 12.671 13.1986 12.75 12.9996 12.75H5.40764L2.31464 19.695C2.2536 19.8323 2.23523 19.9848 2.26192 20.1328C2.28861 20.2807 2.35912 20.4171 2.46432 20.5245C2.56952 20.6319 2.70454 20.7051 2.85188 20.7348C2.99922 20.7645 3.15208 20.7492 3.29064 20.691L22.2906 12.691C22.4265 12.6336 22.5425 12.5375 22.624 12.4146C22.7056 12.2917 22.7491 12.1475 22.7491 12C22.7491 11.8525 22.7056 11.7083 22.624 11.5854C22.5425 11.4624 22.4265 11.3663 22.2906 11.309L3.29064 3.30897Z" fill="#FF852E"/>
</svg>
