<svg width="33" height="33" viewBox="0 0 33 33" fill="none" xmlns="http://www.w3.org/2000/svg">
<g clip-path="url(#clip0_1_12188)">
<path d="M24.1243 7C26.5158 8.38071 27.3351 11.4387 25.9544 13.8301L19.9544 24.2224C18.0214 27.5705 13.7403 28.7176 10.3923 26.7846C7.04421 24.8516 5.89708 20.5705 7.83008 17.2224L11.8301 10.2942L13.5621 11.2942L9.56213 18.2224C8.18142 20.6139 9.00079 23.6718 11.3923 25.0526C13.7837 26.4333 16.8417 25.6139 18.2224 23.2224L24.2224 12.8301C25.0508 11.3952 24.5592 9.56048 23.1243 8.73205C21.6894 7.90362 19.8547 8.39525 19.0262 9.83013L13.0262 20.2224C12.7501 20.7007 12.914 21.3123 13.3923 21.5885C13.8705 21.8646 14.4821 21.7007 14.7583 21.2224L20.2583 11.6962L21.9903 12.6962L16.4903 22.2224C15.6619 23.6573 13.8271 24.1489 12.3923 23.3205C10.9574 22.4921 10.4658 20.6573 11.2942 19.2224L17.2942 8.83013C18.6749 6.43866 21.7328 5.61929 24.1243 7Z" fill="#666666"/>
</g>
<defs>
<clipPath id="clip0_1_12188">
<rect width="24" height="24" fill="white" transform="translate(12) rotate(30)"/>
</clipPath>
</defs>
</svg>
