<svg width="20" height="18" viewBox="0 0 20 18" fill="none" xmlns="http://www.w3.org/2000/svg">
<path fill-rule="evenodd" clip-rule="evenodd" d="M11.6577 3.48952V3.33952C11.6577 2.86702 12.1508 2.52952 12.6048 2.70202C15.2585 3.66952 17.1373 6.12202 17.1373 9.00202C17.1373 11.882 15.2585 14.3345 12.6048 15.302C12.1508 15.467 11.6577 15.137 11.6577 14.6645V14.5145C11.6577 14.2295 11.8455 13.982 12.1273 13.877C14.147 13.1045 15.5717 11.207 15.5717 9.00202C15.5717 6.79702 14.147 4.89952 12.1273 4.12702C11.8534 4.02202 11.6577 3.77452 11.6577 3.48952ZM3.04688 7.50202V10.502C3.04688 10.9145 3.39913 11.252 3.82967 11.252H6.17807L8.75348 13.7195C9.24664 14.192 10.0921 13.8545 10.0921 13.187V4.80952C10.0921 4.14202 9.24664 3.80452 8.75348 4.27702L6.17807 6.75202H3.82967C3.39913 6.75202 3.04688 7.08952 3.04688 7.50202ZM13.6147 9.00202C13.6147 7.67452 12.8162 6.53452 11.6577 5.97952V12.017C12.8162 11.4695 13.6147 10.3295 13.6147 9.00202Z" fill="white"/>
</svg>
