<svg width="20" height="18" viewBox="0 0 20 18" fill="none" xmlns="http://www.w3.org/2000/svg">
<path fill-rule="evenodd" clip-rule="evenodd" d="M17.1364 2.625H3.04607C2.18499 2.625 1.48047 3.3 1.48047 4.125V13.875C1.48047 14.7 2.18499 15.375 3.04607 15.375H17.1364C17.9975 15.375 18.702 14.7 18.702 13.875V4.125C18.702 3.3 17.9975 2.625 17.1364 2.625ZM17.1364 13.125C17.1364 13.5375 16.7842 13.875 16.3536 13.875H10.0913V4.125H16.3536C16.7842 4.125 17.1364 4.4625 17.1364 4.875V13.125ZM11.4612 6.75H15.7665C16.0875 6.75 16.3536 7.005 16.3536 7.3125C16.3536 7.62 16.0875 7.875 15.7665 7.875H11.4612C11.1402 7.875 10.8741 7.62 10.8741 7.3125C10.8741 7.005 11.1402 6.75 11.4612 6.75ZM15.7665 8.625H11.4612C11.1402 8.625 10.8741 8.88 10.8741 9.1875C10.8741 9.495 11.1402 9.75 11.4612 9.75H15.7665C16.0875 9.75 16.3536 9.495 16.3536 9.1875C16.3536 8.88 16.0875 8.625 15.7665 8.625ZM11.4612 10.5H15.7665C16.0875 10.5 16.3536 10.755 16.3536 11.0625C16.3536 11.37 16.0875 11.625 15.7665 11.625H11.4612C11.1402 11.625 10.8741 11.37 10.8741 11.0625C10.8741 10.755 11.1402 10.5 11.4612 10.5Z" fill="white"/>
</svg>
