<svg width="20" height="18" viewBox="0 0 20 18" fill="none" xmlns="http://www.w3.org/2000/svg">
<path fill-rule="evenodd" clip-rule="evenodd" d="M16.3545 2.25H3.82967C3.39913 2.25 3.04688 2.5875 3.04688 3V15C3.04688 15.4125 3.39913 15.75 3.82967 15.75H16.3545C16.785 15.75 17.1373 15.4125 17.1373 15V3C17.1373 2.5875 16.785 2.25 16.3545 2.25ZM7.74367 5.25H6.17807V6.75H7.74367V5.25ZM13.2233 6.75H10.0921C9.66153 6.75 9.30927 6.4125 9.30927 6C9.30927 5.5875 9.66153 5.25 10.0921 5.25H13.2233C13.6538 5.25 14.0061 5.5875 14.0061 6C14.0061 6.4125 13.6538 6.75 13.2233 6.75ZM13.2233 9.75H10.0921C9.66153 9.75 9.30927 9.4125 9.30927 9C9.30927 8.5875 9.66153 8.25 10.0921 8.25H13.2233C13.6538 8.25 14.0061 8.5875 14.0061 9C14.0061 9.4125 13.6538 9.75 13.2233 9.75ZM10.0921 12.75H13.2233C13.6538 12.75 14.0061 12.4125 14.0061 12C14.0061 11.5875 13.6538 11.25 13.2233 11.25H10.0921C9.66153 11.25 9.30927 11.5875 9.30927 12C9.30927 12.4125 9.66153 12.75 10.0921 12.75ZM6.17807 8.25H7.74367V9.75H6.17807V8.25ZM7.74367 11.25H6.17807V12.75H7.74367V11.25ZM4.61247 14.25H15.5717V3.75H4.61247V14.25Z" fill="white"/>
</svg>
