<svg width="20" height="18" viewBox="0 0 20 18" fill="none" xmlns="http://www.w3.org/2000/svg">
<path fill-rule="evenodd" clip-rule="evenodd" d="M17.1364 4.42422H11.195L13.4964 2.21922C13.653 2.06922 13.653 1.83672 13.4964 1.68672C13.3399 1.53672 13.0972 1.53672 12.9406 1.68672L10.0913 4.41672L7.24187 1.68672C7.08531 1.53672 6.84264 1.53672 6.68608 1.68672C6.52952 1.83672 6.52952 2.06922 6.68608 2.21922L8.98751 4.42422H3.04607C2.18499 4.42422 1.48047 5.09172 1.48047 5.92422V14.9242C1.48047 15.7492 2.18499 16.4242 3.04607 16.4242H17.1364C17.9975 16.4242 18.702 15.7492 18.702 14.9242V5.92422C18.702 5.09172 17.9975 4.42422 17.1364 4.42422ZM8.91706 12.7867L12.0326 11.0767C12.5571 10.7917 12.5571 10.0642 12.0326 9.77172L8.91706 8.06172C8.39258 7.77672 7.74286 8.14422 7.74286 8.71422V12.1267C7.74286 12.7042 8.39258 13.0717 8.91706 12.7867ZM3.82887 14.9242H16.3536C16.7842 14.9242 17.1364 14.5867 17.1364 14.1742V6.67422C17.1364 6.26172 16.7842 5.92422 16.3536 5.92422H3.82887C3.39833 5.92422 3.04607 6.26172 3.04607 6.67422V14.1742C3.04607 14.5867 3.39833 14.9242 3.82887 14.9242Z" fill="white"/>
</svg>
