<svg width="21" height="21" viewBox="0 0 21 21" fill="none" xmlns="http://www.w3.org/2000/svg">
<rect x="0.914795" y="0.914795" width="19.1704" height="19.1704" fill="white" fill-opacity="0.01"/>
<mask id="mask0_0_712" style="mask-type:luminance" maskUnits="userSpaceOnUse" x="0" y="0" width="21" height="21">
<rect x="0.914795" y="0.914795" width="19.1704" height="19.1704" fill="white"/>
</mask>
<g mask="url(#mask0_0_712)">
<path fill-rule="evenodd" clip-rule="evenodd" d="M20.0924 10.8369C20.0234 10.762 20.0282 10.6871 20.0924 10.6122C20.0924 10.6872 20.0924 10.7621 20.0924 10.8369Z" fill="#161616"/>
<path fill-rule="evenodd" clip-rule="evenodd" d="M10.2004 20.0924C10.2753 20.0252 10.3502 20.0265 10.4251 20.0924C10.3502 20.0924 10.2753 20.0924 10.2004 20.0924Z" fill="#101010"/>
<path fill-rule="evenodd" clip-rule="evenodd" d="M20.0924 10.3876C20.0283 10.3128 20.0234 10.2379 20.0924 10.163C20.0924 10.2379 20.0924 10.3128 20.0924 10.3876Z" fill="#161616"/>
<path fill-rule="evenodd" clip-rule="evenodd" d="M10.5749 20.0933C10.6373 20.0274 10.6997 20.0261 10.7621 20.0933C10.6997 20.0933 10.6373 20.0933 10.5749 20.0933Z" fill="#101010"/>
<path fill-rule="evenodd" clip-rule="evenodd" d="M0.958512 10.0111C0.965741 10.0537 0.978767 10.0975 0.914795 10.1256C0.914795 10.0881 0.914795 10.0507 0.914795 10.0133C0.927889 9.99723 0.942484 9.99653 0.958512 10.0111Z" fill="#434343"/>
<path fill-rule="evenodd" clip-rule="evenodd" d="M0.914795 10.8744C0.978789 10.9025 0.965758 10.9463 0.958458 10.989C0.942425 11.0038 0.927962 11.0023 0.914795 10.9867C0.914795 10.9493 0.914795 10.9118 0.914795 10.8744Z" fill="#434343"/>
<path fill-rule="evenodd" clip-rule="evenodd" d="M10.0856 0.962827C10.0484 0.96351 10.0112 0.964193 9.97391 0.964724C9.96302 0.952659 9.95973 0.941201 9.96387 0.930426C9.96787 0.920031 9.97181 0.914795 9.9758 0.914795C10.0133 0.914795 10.0507 0.914795 10.0881 0.914795C10.1008 0.927012 10.1047 0.938166 10.0997 0.948334C10.095 0.957971 10.0904 0.962827 10.0856 0.962827Z" fill="#4E4E4E"/>
<path fill-rule="evenodd" clip-rule="evenodd" d="M11.0261 0.964724C10.9888 0.964117 10.9516 0.963434 10.9143 0.962827C10.9006 0.953721 10.8956 0.943629 10.8995 0.932399C10.9034 0.920714 10.9076 0.914795 10.9119 0.914795C10.9493 0.914795 10.9867 0.914795 11.0242 0.914795C11.0359 0.924887 11.0401 0.935662 11.0367 0.94712C11.0333 0.958881 11.0298 0.964724 11.0261 0.964724Z" fill="#4E4E4E"/>
<path fill-rule="evenodd" clip-rule="evenodd" d="M11.027 20.0574C11.066 20.0586 11.1143 20.0154 11.1365 20.0969C11.099 20.0969 11.0616 20.0969 11.0241 20.0969C11.0113 20.0865 11.0075 20.0772 11.0126 20.0689C11.0173 20.0612 11.0221 20.0574 11.027 20.0574Z" fill="#7B7B7B"/>
<path fill-rule="evenodd" clip-rule="evenodd" d="M9.89927 0.959093C9.86861 0.964622 9.83486 0.980088 9.82602 0.914795C9.85098 0.914795 9.87595 0.914795 9.90091 0.914795C9.91345 0.925572 9.91739 0.935719 9.91275 0.945307C9.90825 0.954474 9.90376 0.959093 9.89927 0.959093Z" fill="#909090"/>
<path fill-rule="evenodd" clip-rule="evenodd" d="M9.89926 0.962681C9.90046 0.946719 9.90106 0.930757 9.90091 0.914795C9.92587 0.914795 9.95084 0.914795 9.9758 0.914795C9.9761 0.931514 9.9755 0.948157 9.97391 0.964724C9.94899 0.963968 9.92413 0.963362 9.89926 0.962681Z" fill="#717171"/>
<path fill-rule="evenodd" clip-rule="evenodd" d="M20.0554 9.97369C20.0494 9.94318 20.0388 9.91133 20.1007 9.90094C20.1007 9.9259 20.1007 9.95087 20.1007 9.97583C20.0837 9.99361 20.0687 9.99201 20.0554 9.97369Z" fill="#747474"/>
<path fill-rule="evenodd" clip-rule="evenodd" d="M0.964724 10.0111C0.948055 10.0119 0.931464 10.0126 0.914795 10.0133C0.914795 9.98829 0.914795 9.96332 0.914795 9.93836C0.929906 9.92263 0.946341 9.92123 0.964257 9.93656C0.964412 9.96137 0.964568 9.98624 0.964724 10.0111Z" fill="#616161"/>
<path fill-rule="evenodd" clip-rule="evenodd" d="M20.0549 11.0262C20.0463 10.9939 20.048 10.9645 20.1009 10.9493C20.1009 10.9742 20.1009 10.9992 20.1009 11.0242C20.0871 11.0402 20.0717 11.0409 20.0549 11.0262Z" fill="#555555"/>
<path fill-rule="evenodd" clip-rule="evenodd" d="M0.914795 10.9868C0.931412 10.9874 0.948107 10.9882 0.964724 10.989C0.964568 11.0138 0.96449 11.0386 0.964412 11.0634C0.946469 11.0788 0.930008 11.0774 0.914795 11.0616C0.914795 11.0367 0.914795 11.0117 0.914795 10.9868Z" fill="#616161"/>
<path fill-rule="evenodd" clip-rule="evenodd" d="M20.0552 11.0262C20.0701 11.0256 20.0851 11.0249 20.1001 11.0242C20.1001 11.0491 20.1001 11.0741 20.1001 11.0991C20.0384 11.0889 20.0487 11.057 20.0552 11.0262Z" fill="#757575"/>
<path fill-rule="evenodd" clip-rule="evenodd" d="M0.914795 11.0616C0.929574 11.0621 0.944353 11.0627 0.959132 11.0634C0.965336 11.0943 0.97886 11.1275 0.914795 11.1365C0.914795 11.1115 0.914795 11.0866 0.914795 11.0616Z" fill="#818181"/>
<path fill-rule="evenodd" clip-rule="evenodd" d="M0.95911 9.9365C0.944385 9.93715 0.92959 9.93775 0.914795 9.9383C0.914795 9.91333 0.914795 9.88837 0.914795 9.8634C0.97879 9.87254 0.96539 9.90564 0.95911 9.9365Z" fill="#808080"/>
<path fill-rule="evenodd" clip-rule="evenodd" d="M11.1739 0.914795C11.1651 0.980088 11.1313 0.964622 11.1007 0.959093C11.0874 0.950206 11.0828 0.940618 11.0867 0.930471C11.0907 0.920044 11.0948 0.914795 11.0991 0.914795C11.124 0.914795 11.149 0.914795 11.1739 0.914795Z" fill="#909090"/>
<path fill-rule="evenodd" clip-rule="evenodd" d="M11.0991 0.91481C11.099 0.930847 11.0995 0.94681 11.1007 0.962696C11.0758 0.963377 11.0509 0.964133 11.0261 0.964663C11.0245 0.94802 11.0239 0.931453 11.0242 0.914734C11.0492 0.91481 11.0741 0.91481 11.0991 0.91481Z" fill="#717171"/>
<path fill-rule="evenodd" clip-rule="evenodd" d="M9.82602 20.0994C9.83486 20.0339 9.86851 20.0494 9.89926 20.0555C9.91255 20.0642 9.91719 20.0737 9.9133 20.0837C9.90925 20.0941 9.90516 20.0994 9.90091 20.0994C9.87595 20.0994 9.85098 20.0994 9.82602 20.0994Z" fill="#939393"/>
<path fill-rule="evenodd" clip-rule="evenodd" d="M9.90091 20.1037C9.90071 20.087 9.90011 20.0703 9.89926 20.0538C9.92408 20.0539 9.94889 20.0541 9.97376 20.0542C9.98729 20.0639 9.99208 20.0744 9.98824 20.0858C9.98419 20.0977 9.9801 20.1037 9.9758 20.1037C9.95084 20.1037 9.92587 20.1037 9.90091 20.1037Z" fill="#737373"/>
<path fill-rule="evenodd" clip-rule="evenodd" d="M9.9758 20.101C9.97535 20.0859 9.9747 20.0707 9.97375 20.0555C10.0061 20.0462 10.0357 20.0474 10.0507 20.101C10.0257 20.101 10.0007 20.101 9.9758 20.101Z" fill="#565656"/>
<path fill-rule="evenodd" clip-rule="evenodd" d="M10.9118 0.914795C10.9123 0.930377 10.9131 0.946033 10.9143 0.961541C10.8819 0.969886 10.8534 0.964273 10.8369 0.914795C10.8619 0.914795 10.8869 0.914795 10.9118 0.914795Z" fill="#363636"/>
<path fill-rule="evenodd" clip-rule="evenodd" d="M10.0857 0.961541C10.0868 0.945959 10.0877 0.930451 10.0881 0.914795C10.1131 0.914795 10.138 0.914795 10.163 0.914795C10.1466 0.964273 10.1181 0.969886 10.0857 0.961541Z" fill="#363636"/>
<path fill-rule="evenodd" clip-rule="evenodd" d="M11.027 20.0569C11.0262 20.0716 11.0252 20.0863 11.0241 20.101C10.9992 20.101 10.9742 20.101 10.9492 20.101C10.9643 20.0455 10.9943 20.046 11.027 20.0569Z" fill="#565656"/>
<path fill-rule="evenodd" clip-rule="evenodd" d="M20.0553 9.97363C20.0705 9.97388 20.0858 9.97463 20.1009 9.97578C20.1009 10.0007 20.1009 10.0257 20.1009 10.0507C20.048 10.0354 20.046 10.0061 20.0553 9.97363Z" fill="#555555"/>
<path fill-rule="evenodd" clip-rule="evenodd" d="M20.0852 9.75115C20.0446 9.54384 20.0639 9.33149 20.0327 9.12339C19.6741 6.73578 18.5681 4.75749 16.7484 3.18133C15.4723 2.07605 13.9942 1.37364 12.3385 1.03852C11.9772 0.965373 11.6112 0.962427 11.2488 0.914795C11.2238 0.914795 11.1989 0.914795 11.1739 0.914795C11.1495 0.940958 11.1172 0.93202 11.0875 0.934117C11.0642 0.934068 11.041 0.934068 11.0177 0.934117C10.9866 0.934068 10.9554 0.934117 10.9243 0.934117C10.8942 0.931921 10.8617 0.941207 10.8369 0.914795C10.6123 0.914795 10.3876 0.914795 10.163 0.914795C10.1383 0.941207 10.1057 0.931921 10.0757 0.934117C10.0445 0.934068 10.0134 0.934117 9.98226 0.934117C9.95899 0.934068 9.93573 0.934068 9.91246 0.934117C9.88265 0.93202 9.8504 0.940908 9.82598 0.914795C9.77605 0.914795 9.72612 0.914795 9.67619 0.914795C9.51218 0.951892 9.34307 0.935715 9.1786 0.958433C7.53094 1.18541 6.0415 1.80528 4.71474 2.80296C3.74372 3.53313 2.93212 4.41662 2.29712 5.4563C1.66307 6.49447 1.22669 7.60809 1.01379 8.80874C0.960569 9.10916 0.95967 9.41343 0.914784 9.7137C0.914784 9.76363 0.914784 9.81356 0.914784 9.86349C0.940547 9.8874 0.932209 9.91901 0.934056 9.94827C0.934056 9.97108 0.934056 9.9939 0.934056 10.0168C0.929463 10.0534 0.946589 10.0938 0.914734 10.1256C0.914734 10.3753 0.914734 10.6249 0.914734 10.8745C0.946539 10.9062 0.929513 10.9465 0.934056 10.9831C0.934007 11.006 0.934056 11.0288 0.934056 11.0516C0.932109 11.081 0.940497 11.1127 0.914734 11.1365C0.914734 11.1865 0.914734 11.2364 0.914734 11.2863C0.949085 11.4632 0.934306 11.6445 0.958322 11.8213C1.14136 13.1696 1.60126 14.4189 2.31744 15.5745C2.84389 16.424 3.49262 17.1686 4.25065 17.8188C5.32772 18.7429 6.55103 19.3932 7.91574 19.7799C8.49202 19.9432 9.07859 20.0455 9.67614 20.0852C9.72607 20.0852 9.776 20.0852 9.82593 20.0852C9.8482 20.0607 9.87801 20.0672 9.90592 20.0658C9.92744 20.0659 9.9489 20.0659 9.97043 20.0658C9.99839 20.0673 10.0282 20.0606 10.0506 20.0852C10.1005 20.0852 10.1505 20.0852 10.2004 20.0852C10.2753 20.0546 10.3502 20.0546 10.4251 20.0852C10.475 20.0852 10.5249 20.0852 10.5749 20.0852C10.6373 20.0547 10.6997 20.0547 10.7621 20.0852C10.8245 20.0852 10.8869 20.0852 10.9493 20.0852C10.9724 20.0599 11.0032 20.0675 11.0318 20.0658C11.0671 20.0697 11.106 20.0548 11.1365 20.0852C11.174 20.0852 11.2114 20.0852 11.2489 20.0852C11.8845 20.0509 12.508 19.9473 13.1206 19.7719C14.5607 19.3596 15.8384 18.6508 16.9483 17.6496C17.6128 17.0502 18.189 16.3704 18.6625 15.6065C19.314 14.5557 19.7609 13.4273 19.9832 12.2097C20.0391 11.9034 20.0405 11.5928 20.0852 11.2863C20.0852 11.2239 20.0852 11.1614 20.0852 11.099C20.0621 11.0784 20.0667 11.0506 20.0658 11.0242C20.0667 10.9978 20.062 10.97 20.0852 10.9492C20.0852 10.9118 20.0852 10.8744 20.0852 10.8369C20.0546 10.762 20.0546 10.6871 20.0852 10.6122C20.0852 10.5373 20.0852 10.4624 20.0852 10.3875C20.0546 10.3126 20.0546 10.2378 20.0852 10.1629C20.0852 10.1254 20.0852 10.088 20.0852 10.0505C20.0621 10.0299 20.0667 10.0021 20.0658 9.97568C20.0667 9.94927 20.062 9.92146 20.0852 9.90078C20.0852 9.85101 20.0852 9.80108 20.0852 9.75115ZM10.5046 18.8869C5.88639 18.8915 2.11684 15.126 2.11319 10.5045C2.10955 5.88465 5.87246 2.1175 10.4952 2.11305C15.1148 2.10856 18.8824 5.87201 18.8867 10.4952C18.8911 15.1143 15.1273 18.8824 10.5046 18.8869Z" fill="black"/>
<path fill-rule="evenodd" clip-rule="evenodd" d="M10.09 16.3129C8.32776 16.2538 6.63671 15.3413 5.48665 13.4773C5.24928 13.0927 5.40426 12.6657 5.80949 12.5458C6.07626 12.4668 6.33809 12.5749 6.50435 12.8504C6.85396 13.4297 7.30037 13.9157 7.85424 14.3058C9.96973 15.7962 13.0321 15.1832 14.404 12.9923C14.4403 12.9343 14.4756 12.8755 14.5133 12.8184C14.7081 12.5228 15.0569 12.4359 15.3434 12.611C15.6262 12.7839 15.7104 13.1384 15.5327 13.4449C15.1727 14.0662 14.7138 14.6043 14.1517 15.0521C13.1058 15.8854 11.8644 16.3129 10.09 16.3129Z" fill="black"/>
<path fill-rule="evenodd" clip-rule="evenodd" d="M15.6374 8.13198C15.6404 8.79789 15.1078 9.33647 14.4451 9.33772C13.7874 9.33897 13.2401 8.7923 13.2423 8.13603C13.2444 7.4845 13.7812 6.94552 14.4316 6.94197C15.0993 6.93838 15.6343 7.46643 15.6374 8.13198Z" fill="black"/>
<path fill-rule="evenodd" clip-rule="evenodd" d="M5.36267 8.14648C5.35952 7.47912 5.88932 6.94333 6.55393 6.94184C7.21444 6.94034 7.75952 7.48307 7.75777 8.14043C7.75602 8.79131 7.21888 9.33244 6.56921 9.33773C5.9054 9.34318 5.36582 8.81043 5.36267 8.14648Z" fill="black"/>
</g>
</svg>
