<svg width="26" height="26" viewBox="0 0 26 26" fill="none" xmlns="http://www.w3.org/2000/svg">
<path d="M14 25H12C11.173 25 10.5 24.327 10.5 23.5V21.638C9.85993 21.453 9.24258 21.1969 8.6595 20.8745L7.3425 22.192C6.7755 22.759 5.788 22.758 5.221 22.192L3.8065 20.778C3.523 20.495 3.367 20.118 3.367 19.7175C3.367 19.317 3.523 18.94 3.8065 18.657L5.124 17.339C4.80159 16.7564 4.54581 16.1393 4.3615 15.4995H2.5C1.673 15.4995 1 14.8265 1 13.9995V11.9995C1 11.5985 1.156 11.222 1.439 10.939C1.57805 10.7993 1.74341 10.6885 1.92552 10.6131C2.10763 10.5376 2.30288 10.499 2.5 10.4995H4.362C4.547 9.8605 4.802 9.244 5.125 8.66L3.808 7.3425C3.52704 7.06108 3.36923 6.67967 3.36923 6.282C3.36923 5.88434 3.52704 5.50292 3.808 5.2215L5.222 3.807C5.7885 3.241 6.7765 3.24 7.3435 3.807L8.661 5.1245C9.24363 4.80252 9.86047 4.54676 10.5 4.362V2.5C10.5 1.673 11.173 1 12 1H14C14.827 1 15.5 1.673 15.5 2.5V4.362C16.14 4.547 16.756 4.8025 17.339 5.1245L18.6565 3.807C19.2235 3.241 20.211 3.24 20.778 3.807L22.1925 5.221C22.476 5.504 22.632 5.881 22.632 6.2815C22.632 6.682 22.476 7.059 22.1925 7.342L20.8755 8.6595C21.198 9.24228 21.454 9.8595 21.6385 10.4995H23.5C24.327 10.4995 25 11.1725 25 11.9995V13.9995C25 14.4005 24.844 14.777 24.561 15.06C24.278 15.343 23.901 15.4995 23.5 15.4995H21.638C21.4531 16.1394 21.1972 16.7566 20.875 17.3395L22.192 18.657C22.473 18.9384 22.6308 19.3198 22.6308 19.7175C22.6308 20.1152 22.473 20.4966 22.192 20.778L20.778 22.1925C20.211 22.759 19.2235 22.759 18.6565 22.1925L17.34 20.875C16.7572 21.1971 16.1402 21.4531 15.5005 21.638V23.5C15.4998 23.8977 15.3415 24.2789 15.0603 24.5601C14.779 24.8413 14.3977 24.9995 14 25ZM8.5785 19.749C8.668 19.749 8.7585 19.773 8.839 19.822C9.54459 20.254 10.3134 20.573 11.1175 20.7675C11.2265 20.7939 11.3235 20.8561 11.3929 20.9443C11.4623 21.0324 11.5 21.1413 11.5 21.2535V23.5C11.5 23.776 11.7245 24 12 24H14C14.2755 24 14.5 23.776 14.5 23.5V21.2535C14.5 21.1413 14.5377 21.0324 14.6071 20.9443C14.6765 20.8561 14.7735 20.7939 14.8825 20.7675C15.6864 20.5731 16.455 20.2543 17.1605 19.8225C17.3585 19.702 17.6115 19.7325 17.775 19.8955L19.364 21.485C19.5515 21.672 19.8835 21.673 20.0715 21.485L21.4855 20.0705C21.5792 19.9767 21.6319 19.8496 21.6319 19.717C21.6319 19.5844 21.5792 19.4573 21.4855 19.3635L19.896 17.774C19.8166 17.6946 19.7663 17.5909 19.753 17.4794C19.7398 17.3679 19.7644 17.2553 19.823 17.1595C20.2547 16.4541 20.5734 15.6854 20.7675 14.8815C20.7938 14.7724 20.856 14.6753 20.9441 14.6058C21.0323 14.5363 21.1413 14.4985 21.2535 14.4985H23.5C23.5657 14.4988 23.6307 14.486 23.6914 14.4611C23.7521 14.4361 23.8073 14.3994 23.8538 14.353C23.9003 14.3066 23.9371 14.2515 23.9622 14.1908C23.9873 14.1302 24.0001 14.0652 24 13.9995V11.9995C24 11.7235 23.7755 11.4995 23.5 11.4995H21.2535C21.1412 11.4996 21.0322 11.4618 20.9441 11.3923C20.8559 11.3228 20.7937 11.2257 20.7675 11.1165C20.5735 10.3125 20.2548 9.5439 19.823 8.8385C19.7644 8.74275 19.7398 8.63007 19.753 8.5186C19.7663 8.40713 19.8166 8.30337 19.896 8.224L21.4855 6.6345C21.5785 6.541 21.632 6.4125 21.632 6.281C21.632 6.1495 21.5785 6.0205 21.4855 5.9275L20.071 4.5135C19.9756 4.42279 19.8489 4.37221 19.7173 4.37221C19.5856 4.37221 19.4589 4.42279 19.3635 4.5135L17.774 6.103C17.6949 6.18278 17.5911 6.23341 17.4795 6.24667C17.3679 6.25992 17.2551 6.23502 17.1595 6.176C16.4544 5.74443 15.6861 5.42575 14.8825 5.2315C14.7735 5.20542 14.6765 5.14338 14.6071 5.05538C14.5377 4.96738 14.5 4.85857 14.5 4.7465V2.5C14.5 2.224 14.2755 2 14 2H12C11.7245 2 11.5 2.224 11.5 2.5V4.7465C11.5 4.85867 11.4623 4.96759 11.3929 5.05573C11.3235 5.14388 11.2265 5.20614 11.1175 5.2325C10.3136 5.42672 9.54498 5.7454 8.8395 6.177C8.74385 6.23562 8.63123 6.26031 8.51983 6.24706C8.40843 6.23382 8.30474 6.18342 8.2255 6.104L6.636 4.5145C6.54056 4.42379 6.41392 4.37321 6.28225 4.37321C6.15058 4.37321 6.02394 4.42379 5.9285 4.5145L4.515 5.9285C4.42126 6.02226 4.36861 6.14942 4.36861 6.282C4.36861 6.41458 4.42126 6.54174 4.515 6.6355L6.1045 8.225C6.18388 8.30437 6.23424 8.40813 6.24749 8.5196C6.26073 8.63107 6.23608 8.74375 6.1775 8.8395C5.74582 9.54477 5.42713 10.3132 5.233 11.117C5.20674 11.2261 5.14452 11.3232 5.05636 11.3927C4.96821 11.4622 4.85924 11.5 4.747 11.5H2.5C2.43431 11.4997 2.36921 11.5125 2.30846 11.5375C2.24771 11.5625 2.19251 11.5993 2.14603 11.6457C2.09956 11.6921 2.06273 11.7473 2.03767 11.808C2.0126 11.8687 1.9998 11.9338 2 11.9995V13.9995C2 14.2755 2.2245 14.4995 2.5 14.4995H4.7465C4.9775 14.4995 5.1785 14.6575 5.2325 14.8825C5.42671 15.6863 5.7454 16.4547 6.177 17.16C6.23558 17.2558 6.26023 17.3684 6.24698 17.4799C6.23374 17.5914 6.18338 17.6951 6.104 17.7745L4.5145 19.3645C4.4215 19.458 4.368 19.5865 4.368 19.718C4.368 19.8495 4.4215 19.9785 4.5145 20.0715L5.929 21.4855C6.02444 21.5762 6.15108 21.6268 6.28275 21.6268C6.41442 21.6268 6.54106 21.5762 6.6365 21.4855L8.2255 19.896C8.27165 19.8493 8.32663 19.8123 8.38723 19.787C8.44783 19.7618 8.51285 19.7489 8.5785 19.749Z" fill="#242424" stroke="#242424" stroke-width="0.5"/>
<path d="M13 18C10.243 18 8 15.757 8 13C8 10.243 10.243 8 13 8C15.757 8 18 10.243 18 13C18 15.757 15.7575 18 13 18ZM13 9C10.7945 9 9 10.7945 9 13C9 15.2055 10.7945 17 13 17C15.2055 17 17 15.2055 17 13C17 10.7945 15.206 9 13 9Z" fill="#242424" stroke="#242424" stroke-width="0.5"/>
</svg>
