<svg width="20" height="20" viewBox="0 0 20 20" fill="none" xmlns="http://www.w3.org/2000/svg">
<path fill-rule="evenodd" clip-rule="evenodd" d="M13.2519 5.55539V8.33317H14.8159C15.2307 8.33317 15.6286 8.50877 15.9219 8.82133C16.2152 9.13389 16.38 9.55781 16.38 9.99984V16.6665C16.38 17.1085 16.2152 17.5325 15.9219 17.845C15.6286 18.1576 15.2307 18.3332 14.8159 18.3332H4.38921C3.9744 18.3332 3.57659 18.1576 3.28328 17.845C2.98997 17.5325 2.8252 17.1085 2.8252 16.6665V9.99984C2.8252 9.55781 2.98997 9.13389 3.28328 8.82133C3.57659 8.50877 3.9744 8.33317 4.38921 8.33317H5.95322V5.55539C5.95322 4.524 6.3377 3.53484 7.02209 2.80553C7.70648 2.07622 8.63471 1.6665 9.60258 1.6665C10.5704 1.6665 11.4987 2.07622 12.1831 2.80553C12.8674 3.53484 13.2519 4.524 13.2519 5.55539ZM6.99589 5.55539C6.99589 4.81868 7.27052 4.11214 7.75937 3.59121C8.24822 3.07027 8.91124 2.77762 9.60258 2.77762C10.2939 2.77762 10.9569 3.07027 11.4458 3.59121C11.9346 4.11214 12.2093 4.81868 12.2093 5.55539V8.33317H6.99589V5.55539Z" fill="#BFBFBF"/>
</svg>
