<svg width="16" height="16" viewBox="0 0 16 16" fill="none" xmlns="http://www.w3.org/2000/svg">
<path d="M5.33398 8.66667L8.15265 10.9213C8.28973 11.0308 8.46445 11.0819 8.63891 11.0634C8.81338 11.0449 8.97354 10.9584 9.08465 10.8227L14.6673 4" stroke="#FFFFFF" stroke-width="1.33333" stroke-linecap="round"/>
<path fill-rule="evenodd" clip-rule="evenodd" d="M7.46033 8.15807L10.5163 4.42207C10.6251 4.28489 10.6755 4.11045 10.6567 3.93642C10.6379 3.76239 10.5514 3.60273 10.4159 3.49192C10.2804 3.3811 10.1068 3.32802 9.93247 3.34414C9.75817 3.36026 9.59721 3.44428 9.48433 3.57807L6.43566 7.30473L7.46033 8.15807ZM5.34899 10.7381L4.32433 9.88473L3.88899 10.4167L1.73366 8.80007C1.59221 8.69398 1.41441 8.64843 1.23938 8.67343C1.06435 8.69844 0.906415 8.79195 0.800328 8.9334C0.694242 9.07485 0.64869 9.25265 0.673695 9.42768C0.6987 9.60271 0.792213 9.76065 0.933662 9.86673L3.08899 11.4834C3.36414 11.6897 3.70836 11.7817 4.04974 11.7402C4.39113 11.6987 4.70328 11.5269 4.92099 11.2607L5.34899 10.7381Z" fill="#FFFFFF"/>
</svg>
