<svg width="48" height="48" viewBox="0 0 48 48" fill="none" xmlns="http://www.w3.org/2000/svg">
<path d="M12.4687 41.2502C11.8931 41.2491 11.3277 41.0982 10.8281 40.8124C9.7031 40.1749 9.00372 38.9374 9.00372 37.5939V10.4064C9.00372 9.05923 9.7031 7.82548 10.8281 7.18798C11.3396 6.89401 11.9207 6.74284 12.5106 6.75026C13.1005 6.75768 13.6776 6.92343 14.1815 7.23017L37.4175 21.1389C37.9017 21.4426 38.3009 21.8642 38.5777 22.3644C38.8544 22.8645 38.9995 23.4267 38.9995 23.9983C38.9995 24.5699 38.8544 25.1321 38.5777 25.6322C38.3009 26.1324 37.9017 26.554 37.4175 26.8577L14.1778 40.7702C13.6621 41.082 13.0714 41.2479 12.4687 41.2502Z" fill="white"/>
</svg>
