<svg width="20" height="20" viewBox="0 0 20 20" fill="none" xmlns="http://www.w3.org/2000/svg">
<path d="M4.00003 11.75C4.00003 11.213 4.06303 10.685 4.18803 10.164C4.31303 9.64399 4.50803 9.14599 4.77303 8.67199C4.81503 8.59899 4.85703 8.52299 4.89803 8.44499C4.94003 8.36699 4.99003 8.29499 5.04703 8.22699C5.09611 8.16115 5.15718 8.10516 5.22703 8.06199C5.30134 8.02173 5.38452 8.00064 5.46903 8.00064C5.55355 8.00064 5.63673 8.02173 5.71103 8.06199C5.78634 8.1008 5.84884 8.16052 5.89103 8.23399L6.93003 9.92999C6.97505 10.0057 7.03965 10.0679 7.11703 10.11C7.19944 10.1527 7.29028 10.1766 7.38303 10.18C7.46279 10.1835 7.54219 10.1675 7.61435 10.1333C7.6865 10.0992 7.74921 10.0479 7.79703 9.98399C7.86561 9.89403 7.91316 9.78984 7.93617 9.67909C7.95919 9.56833 7.95709 9.45383 7.93003 9.34399C7.91191 9.2795 7.8885 9.21663 7.86003 9.15599C7.65424 8.71836 7.47915 8.26693 7.33603 7.80499C7.19682 7.33577 7.1284 6.8484 7.13303 6.35899C7.13303 5.70299 7.24303 5.12799 7.46103 4.63299C7.68003 4.13799 7.98403 3.71299 8.37503 3.35899C8.76503 3.00499 9.22103 2.71899 9.74203 2.49999C10.28 2.27624 10.8406 2.11128 11.414 2.00799C11.4856 1.99474 11.5593 1.99775 11.6296 2.01679C11.6998 2.03583 11.7649 2.07041 11.82 2.11799C11.94 2.22099 12 2.34899 12 2.49999C12 3.28099 12.133 4.02599 12.398 4.73399C12.6668 5.44823 13.038 6.11958 13.5 6.72699L14.367 7.85899C14.659 8.23899 14.927 8.63499 15.172 9.04699C15.417 9.45799 15.615 9.88499 15.766 10.328C15.916 10.771 15.995 11.245 16 11.75C16 12.307 15.932 12.849 15.797 13.375C15.6645 13.8934 15.4648 14.3923 15.203 14.859C14.943 15.323 14.635 15.745 14.281 16.125C13.9248 16.5065 13.5204 16.84 13.078 17.117C12.63 17.398 12.148 17.615 11.633 17.766C11.102 17.9187 10.5525 17.9974 10 18C9.44765 18.0028 8.89772 17.9263 8.36703 17.773C7.85989 17.6258 7.3761 17.4076 6.93003 17.125C6.48789 16.8443 6.08128 16.5112 5.71903 16.133C5.35451 15.7528 5.04424 15.3241 4.79703 14.859C4.54616 14.3881 4.34957 13.8902 4.21103 13.375C4.06918 12.845 3.99823 12.2986 4.00003 11.75Z" fill="black"/>
</svg>
