<svg width="16" height="16" viewBox="0 0 16 16" fill="none" xmlns="http://www.w3.org/2000/svg">
<path d="M4.66699 4.00033C4.8438 4.00033 5.01337 3.93009 5.1384 3.80506C5.26342 3.68004 5.33366 3.51047 5.33366 3.33366C5.33366 3.15685 5.26342 2.98728 5.1384 2.86225C5.01337 2.73723 4.8438 2.66699 4.66699 2.66699H3.33366C3.15685 2.66699 2.98728 2.73723 2.86225 2.86225C2.73723 2.98728 2.66699 3.15685 2.66699 3.33366V12.667C2.66699 12.8438 2.73723 13.0134 2.86225 13.1384C2.98728 13.2634 3.15685 13.3337 3.33366 13.3337H4.66699C4.8438 13.3337 5.01337 13.2634 5.1384 13.1384C5.26342 13.0134 5.33366 12.8438 5.33366 12.667C5.33366 12.4902 5.26342 12.3206 5.1384 12.1956C5.01337 12.0706 4.8438 12.0003 4.66699 12.0003H4.00033V4.00033H4.66699ZM13.8803 7.61366L12.0003 4.94699C11.8984 4.80327 11.7437 4.70575 11.57 4.67577C11.3964 4.64579 11.2179 4.68578 11.0737 4.78699C11.0016 4.83752 10.9402 4.90182 10.8931 4.9762C10.8459 5.05057 10.814 5.13354 10.7992 5.22032C10.7843 5.30709 10.7867 5.39595 10.8064 5.48177C10.826 5.56759 10.8625 5.64867 10.9137 5.72033L12.0603 7.33366H6.66699C6.49018 7.33366 6.32061 7.4039 6.19559 7.52892C6.07056 7.65394 6.00033 7.82351 6.00033 8.00033C6.00033 8.17714 6.07056 8.34671 6.19559 8.47173C6.32061 8.59675 6.49018 8.66699 6.66699 8.66699H12.0003L10.8003 10.267C10.7478 10.337 10.7096 10.4167 10.6878 10.5015C10.6661 10.5863 10.6613 10.6746 10.6737 10.7613C10.6861 10.8479 10.7154 10.9313 10.76 11.0067C10.8046 11.082 10.8636 11.1478 10.9337 11.2003C11.0491 11.2869 11.1894 11.3337 11.3337 11.3337C11.4372 11.3337 11.5392 11.3096 11.6318 11.2633C11.7244 11.217 11.8049 11.1498 11.867 11.067L13.867 8.40033C13.9524 8.28757 13.9997 8.15058 14.0021 8.00917C14.0045 7.86775 13.9618 7.72924 13.8803 7.61366Z" fill="black"/>
</svg>
