<svg width="20" height="20" viewBox="0 0 20 20" fill="none" xmlns="http://www.w3.org/2000/svg">
<path d="M4.16634 15.8334C3.93023 15.8334 3.73245 15.7534 3.57301 15.5934C3.41356 15.4334 3.33356 15.2356 3.33301 15C3.33301 14.7639 3.41301 14.5661 3.57301 14.4067C3.73301 14.2472 3.93079 14.1672 4.16634 14.1667H4.99967V8.33335C4.99967 7.18058 5.3469 6.15641 6.04134 5.26085C6.73579 4.3653 7.63856 3.77835 8.74967 3.50002V2.91669C8.74967 2.56946 8.87134 2.27446 9.11467 2.03169C9.35801 1.78891 9.65301 1.66724 9.99967 1.66669C10.3469 1.66669 10.6422 1.78835 10.8855 2.03169C11.1288 2.27502 11.2502 2.57002 11.2497 2.91669V3.50002C12.3608 3.7778 13.2636 4.36474 13.958 5.26085C14.6525 6.15696 14.9997 7.18113 14.9997 8.33335V14.1667H15.833C16.0691 14.1667 16.2672 14.2467 16.4272 14.4067C16.5872 14.5667 16.6669 14.7645 16.6663 15C16.6663 15.2361 16.5863 15.4342 16.4263 15.5942C16.2663 15.7542 16.0686 15.8339 15.833 15.8334H4.16634ZM9.99967 18.3334C9.54134 18.3334 9.14912 18.1703 8.82301 17.8442C8.4969 17.5181 8.33356 17.1256 8.33301 16.6667H11.6663C11.6663 17.125 11.5033 17.5175 11.1772 17.8442C10.8511 18.1709 10.4586 18.3339 9.99967 18.3334Z" fill="black"/>
</svg>
