<svg width="24" height="25" viewBox="0 0 24 25" fill="none" xmlns="http://www.w3.org/2000/svg">
<g clip-path="url(#clip0_1_13251)">
<mask id="mask0_1_13251" style="mask-type:luminance" maskUnits="userSpaceOnUse" x="0" y="0" width="24" height="25">
<path d="M0 0.75H24V24.75H0V0.75Z" fill="white"/>
</mask>
<g mask="url(#mask0_1_13251)">
<path d="M9.16406 12.3412H13.9603L19.9566 0.75H15.1603L9.16406 12.3412Z" fill="#006CA2"/>
<path d="M12.1618 6.54565L9.76367 11.1825L10.3637 12.3413H13.9599L14.5599 11.1825L12.1618 6.54565Z" fill="#2F2F2F"/>
<path d="M14.3439 15.1406H9.54766V12.3412H14.3439V15.1406ZM14.3439 11.1431H9.54766C9.2294 11.1431 8.92417 11.2695 8.69913 11.4945C8.47408 11.7196 8.34766 12.0248 8.34766 12.3431V15.1406C8.34766 15.4588 8.47408 15.7641 8.69913 15.9891C8.92417 16.2141 9.2294 16.3406 9.54766 16.3406H14.3439C15.0058 16.3406 15.542 15.8043 15.542 15.1406V12.3412C15.542 11.6793 15.0058 11.1431 14.3439 11.1431Z" fill="#FCC21B"/>
<path d="M17.9398 18.7369C17.9398 22.0481 15.2548 24.7331 11.9435 24.7331C8.63227 24.7331 5.94727 22.05 5.94727 18.7369C5.94727 15.4237 8.63227 12.7406 11.9435 12.7406C15.2566 12.7406 17.9398 15.4256 17.9398 18.7369Z" fill="#FCC21B"/>
<path d="M7.92634 17.2781C7.84759 17.2781 7.76884 17.2631 7.69384 17.2293C7.40509 17.1056 7.26634 16.77 7.37884 16.4793C7.38072 16.4756 7.38259 16.47 7.38259 16.4662C7.38447 16.4568 7.38634 16.4587 7.39009 16.4512C7.92072 15.1875 9.03259 14.2537 10.3676 13.9443C10.4332 13.9293 10.5026 13.9612 10.5326 14.0231C10.5626 14.085 10.5457 14.16 10.4913 14.2031C9.61572 14.8987 8.91634 15.8362 8.47009 16.9162C8.47009 16.9181 8.46822 16.92 8.46822 16.92C8.46822 16.92 8.46822 16.9218 8.46634 16.9218C8.40447 17.0662 8.29009 17.1787 8.14384 17.235C8.07447 17.265 7.99947 17.2781 7.92634 17.2781Z" fill="white"/>
<path d="M14.3609 12.3412H9.56273L3.56836 0.75H8.36461L14.3609 12.3412Z" fill="#006CA2"/>
<path d="M10.7807 17.5144L11.3376 17.355V20.4132H10.9082C10.8613 20.4132 10.8257 20.4507 10.8257 20.4957V21.5419C10.8257 21.5869 10.8613 21.6244 10.9082 21.6244H13.1301C13.1751 21.6244 13.2126 21.5869 13.2126 21.5419V20.4957C13.2126 20.4507 13.1751 20.4132 13.1301 20.4132H12.7007V15.9338C12.7007 15.9094 12.6895 15.885 12.6688 15.87C12.6592 15.8623 12.648 15.8567 12.636 15.8538C12.624 15.8509 12.6115 15.8507 12.5995 15.8532L10.7395 16.2525C10.702 16.2619 10.6738 16.2938 10.6738 16.3332V17.4357C10.6738 17.46 10.6851 17.4863 10.7057 17.5013C10.7301 17.5163 10.7563 17.52 10.7807 17.5144Z" fill="#F79329"/>
</g>
</g>
<defs>
<clipPath id="clip0_1_13251">
<rect width="24" height="24" fill="white" transform="translate(0 0.75)"/>
</clipPath>
</defs>
</svg>
