<svg width="24" height="25" viewBox="0 0 24 25" fill="none" xmlns="http://www.w3.org/2000/svg">
<mask id="mask0_1_13263" style="mask-type:luminance" maskUnits="userSpaceOnUse" x="0" y="0" width="24" height="25">
<path d="M0 0.75H24V24.75H0V0.75Z" fill="white"/>
</mask>
<g mask="url(#mask0_1_13263)">
<path d="M9.25391 12.3375H14.0483L20.0427 0.75H15.2483L9.25391 12.3375Z" fill="#006CA2"/>
<path d="M12.2498 6.5437L9.85352 11.1787L10.4535 12.3375H14.0479L14.6479 11.1787L12.2498 6.5437Z" fill="#2F2F2F"/>
<path d="M14.4299 15.1349H9.63367V12.3374H14.428V15.1349H14.4299ZM14.4299 11.1393H9.63367C8.9718 11.1393 8.43555 11.6755 8.43555 12.3374V15.1349C8.43555 15.7968 8.9718 16.333 9.63367 16.333H14.428C15.0899 16.333 15.6262 15.7968 15.6262 15.1349V12.3374C15.6266 12.1801 15.5959 12.0243 15.536 11.8789C15.476 11.7335 15.3879 11.6013 15.2768 11.49C15.1657 11.3787 15.0336 11.2904 14.8883 11.2302C14.743 11.17 14.5872 11.1391 14.4299 11.1393Z" fill="#CECED2"/>
<path d="M18.0268 18.7312C18.0268 22.0424 15.3437 24.7256 12.0325 24.7256C8.72309 24.7256 6.03809 22.0424 6.03809 18.7312C6.03809 15.4199 8.72121 12.7368 12.0325 12.7368C15.3437 12.7368 18.0268 15.4218 18.0268 18.7312Z" fill="#CECED2"/>
<path d="M8.01423 17.2725C7.93548 17.2725 7.85673 17.2575 7.78173 17.2237C7.49298 17.1 7.35424 16.7644 7.46674 16.4719C7.46861 16.4681 7.47048 16.4625 7.47048 16.4587C7.47236 16.4494 7.47236 16.4512 7.47798 16.4437C7.74019 15.8204 8.14669 15.2683 8.66401 14.8328C9.18134 14.3972 9.7947 14.0908 10.4536 13.9387C10.5192 13.9237 10.5886 13.9556 10.6186 14.0175C10.6486 14.0794 10.6317 14.1525 10.5774 14.1956C9.70173 14.8912 9.00236 15.8287 8.55611 16.9069C8.55611 16.9087 8.55423 16.9106 8.55423 16.9106C8.55423 16.9125 8.55423 16.9125 8.55236 16.9144C8.49048 17.0587 8.37611 17.1694 8.22986 17.2275C8.16236 17.2594 8.08736 17.2725 8.01423 17.2725Z" fill="white"/>
<path d="M14.4479 12.3375H9.65168L3.65918 0.75H8.45355L14.4479 12.3375Z" fill="#006CA2"/>
<path d="M13.8102 20.2273H11.7984C12.1152 20.0342 12.6684 19.6498 13.2984 19.0198C13.889 18.431 14.0859 17.3567 13.3809 16.6498C12.9721 16.2429 12.5071 16.0348 11.999 16.0348C10.8759 16.0348 9.93836 17.0285 9.89898 17.0698C9.87461 17.096 9.86898 17.1373 9.88961 17.1692L10.3959 17.996C10.409 18.0167 10.4315 18.0317 10.4559 18.0335C10.4802 18.0373 10.5046 18.0298 10.5234 18.011C10.529 18.0054 11.1402 17.4392 11.6765 17.4392C11.8921 17.4392 12.0609 17.5292 12.1921 17.7167C12.299 17.8685 12.3309 18.0373 12.2896 18.2285C12.0852 19.1435 10.2796 20.1785 10.2609 20.1898C10.2485 20.1972 10.2382 20.2076 10.231 20.22C10.2237 20.2325 10.2198 20.2466 10.2196 20.261V21.3429C10.2196 21.3898 10.2571 21.4254 10.3021 21.4254H13.8121C13.8571 21.4254 13.8946 21.3879 13.8946 21.3429V20.3079C13.8936 20.2862 13.8843 20.2657 13.8686 20.2507C13.8528 20.2357 13.832 20.2273 13.8102 20.2273Z" fill="#77A2AD"/>
</g>
</svg>
