<svg width="90" height="19" viewBox="0 0 90 19" fill="none" xmlns="http://www.w3.org/2000/svg">
<path d="M-0.00021863 17.592V0.79204H10.6318V3.79204H3.28778V7.60804H9.62378V10.536H3.28778V14.592H10.7278V17.592H-0.00021863ZM22.2206 17.592L22.0526 15.36V0.79204H25.2206V17.592H22.2206ZM18.4526 17.88C17.3486 17.88 16.3886 17.624 15.5726 17.112C14.7726 16.6 14.1486 15.872 13.7006 14.928C13.2526 13.984 13.0286 12.872 13.0286 11.592C13.0286 10.296 13.2526 9.18404 13.7006 8.25604C14.1486 7.31204 14.7726 6.58404 15.5726 6.07204C16.3886 5.56004 17.3486 5.30404 18.4526 5.30404C19.4606 5.30404 20.3086 5.56004 20.9966 6.07204C21.7006 6.58404 22.2366 7.31204 22.6046 8.25604C22.9726 9.18404 23.1566 10.296 23.1566 11.592C23.1566 12.872 22.9726 13.984 22.6046 14.928C22.2366 15.872 21.7006 16.6 20.9966 17.112C20.3086 17.624 19.4606 17.88 18.4526 17.88ZM19.2686 14.976C19.8126 14.976 20.2926 14.832 20.7086 14.544C21.1406 14.256 21.4766 13.856 21.7166 13.344C21.9566 12.832 22.0766 12.248 22.0766 11.592C22.0766 10.936 21.9566 10.352 21.7166 9.84004C21.4766 9.32804 21.1406 8.93604 20.7086 8.66404C20.2926 8.37604 19.8046 8.23204 19.2446 8.23204C18.6686 8.23204 18.1646 8.37604 17.7326 8.66404C17.3006 8.93604 16.9566 9.32804 16.7006 9.84004C16.4446 10.352 16.3166 10.936 16.3166 11.592C16.3166 12.248 16.4446 12.832 16.7006 13.344C16.9566 13.856 17.3006 14.256 17.7326 14.544C18.1806 14.832 18.6926 14.976 19.2686 14.976ZM35.87 17.592L35.678 15.384V5.59204H38.846V17.592H35.87ZM27.734 11.736V5.59204H30.902V11.736H27.734ZM30.902 11.736C30.902 12.536 30.99 13.168 31.166 13.632C31.358 14.08 31.622 14.408 31.958 14.616C32.31 14.808 32.702 14.904 33.134 14.904C33.966 14.92 34.598 14.672 35.03 14.16C35.462 13.632 35.678 12.872 35.678 11.88H36.758C36.758 13.16 36.566 14.248 36.182 15.144C35.798 16.024 35.27 16.704 34.598 17.184C33.926 17.648 33.134 17.88 32.222 17.88C31.262 17.88 30.446 17.688 29.774 17.304C29.102 16.92 28.59 16.328 28.238 15.528C27.902 14.712 27.734 13.664 27.734 12.384V11.736H30.902Z" fill="#323232"/>
<path d="M49.7267 17.88C48.0307 17.88 46.5267 17.512 45.2147 16.776C43.9187 16.024 42.9027 15 42.1667 13.704C41.4307 12.392 41.0627 10.888 41.0627 9.19204C41.0627 7.92804 41.2707 6.76804 41.6867 5.71204C42.1187 4.64004 42.7107 3.72004 43.4627 2.95204C44.2307 2.16804 45.1347 1.56804 46.1747 1.15204C47.2307 0.72004 48.3907 0.504041 49.6547 0.504041C51.3507 0.504041 52.8387 0.880041 54.1187 1.63204C55.4147 2.36804 56.4307 3.39204 57.1667 4.70404C57.9027 6.00004 58.2707 7.50404 58.2707 9.21604C58.2707 10.896 57.9027 12.392 57.1667 13.704C56.4467 15 55.4387 16.024 54.1427 16.776C52.8627 17.512 51.3907 17.88 49.7267 17.88ZM56.0147 18.6L49.8227 12.312L51.9347 10.32L58.0787 16.56L56.0147 18.6ZM49.7267 14.88C50.7507 14.88 51.6467 14.64 52.4147 14.16C53.1987 13.664 53.8067 12.992 54.2387 12.144C54.6867 11.296 54.9107 10.312 54.9107 9.19204C54.9107 8.08804 54.6867 7.11204 54.2387 6.26404C53.7907 5.40004 53.1747 4.72804 52.3907 4.24804C51.6067 3.75204 50.6947 3.50404 49.6547 3.50404C48.6467 3.50404 47.7427 3.75204 46.9427 4.24804C46.1587 4.72804 45.5427 5.40004 45.0947 6.26404C44.6467 7.11204 44.4227 8.08804 44.4227 9.19204C44.4227 10.312 44.6467 11.296 45.0947 12.144C45.5427 12.992 46.1667 13.664 46.9667 14.16C47.7667 14.64 48.6867 14.88 49.7267 14.88ZM68.4482 17.592L68.2562 15.384V5.59204H71.4242V17.592H68.4482ZM60.3122 11.736V5.59204H63.4802V11.736H60.3122ZM63.4802 11.736C63.4802 12.536 63.5682 13.168 63.7442 13.632C63.9362 14.08 64.2002 14.408 64.5362 14.616C64.8882 14.808 65.2802 14.904 65.7122 14.904C66.5442 14.92 67.1762 14.672 67.6082 14.16C68.0402 13.632 68.2562 12.872 68.2562 11.88H69.3362C69.3362 13.16 69.1442 14.248 68.7602 15.144C68.3762 16.024 67.8482 16.704 67.1762 17.184C66.5042 17.648 65.7122 17.88 64.8002 17.88C63.8402 17.88 63.0242 17.688 62.3522 17.304C61.6802 16.92 61.1682 16.328 60.8162 15.528C60.4802 14.712 60.3122 13.664 60.3122 12.384V11.736H63.4802ZM74.3608 17.592V5.59204H77.5288V17.592H74.3608ZM75.9448 3.64804C75.4648 3.64804 75.0408 3.47204 74.6728 3.12004C74.3048 2.75204 74.1208 2.32004 74.1208 1.82404C74.1208 1.32804 74.3048 0.90404 74.6728 0.55204C75.0408 0.18404 75.4648 4.00543e-05 75.9448 4.00543e-05C76.4408 4.00543e-05 76.8648 0.18404 77.2168 0.55204C77.5848 0.90404 77.7688 1.32804 77.7688 1.82404C77.7688 2.32004 77.5848 2.75204 77.2168 3.12004C76.8648 3.47204 76.4408 3.64804 75.9448 3.64804ZM79.85 17.592V15.288L85.778 8.20804H79.85V5.59204H89.738V7.87204L83.81 15H89.762V17.592H79.85Z" fill="#FF852E"/>
</svg>
