<svg width="26" height="26" viewBox="0 0 26 26" fill="none" xmlns="http://www.w3.org/2000/svg">
<path fill-rule="evenodd" clip-rule="evenodd" d="M3.85714 5.75471C2.91037 5.75471 2.14286 6.55299 2.14286 7.53773V22.0283C2.14286 23.013 2.91037 23.8113 3.85714 23.8113H22.1429C23.0896 23.8113 23.8571 23.013 23.8571 22.0283V12.4056C23.8571 11.4209 23.0896 10.6226 22.1429 10.6226H14.159C13.2483 10.6226 12.3922 10.1711 11.8542 9.40709L9.79536 6.48405C9.47248 6.02561 8.95882 5.75471 8.41245 5.75471H3.85714ZM1 7.53773C1 5.89651 2.27919 4.56603 3.85714 4.56603H8.41245C9.32307 4.56603 10.1792 5.01752 10.7173 5.78159L12.7761 8.70463C13.099 9.16307 13.6126 9.43397 14.159 9.43397H22.1429C23.7208 9.43397 25 10.7644 25 12.4056V22.0283C25 23.6695 23.7208 25 22.1429 25H3.85714C2.27919 25 1 23.6695 1 22.0283V7.53773Z" fill="#242424" stroke="#242424" stroke-width="0.5"/>
<path fill-rule="evenodd" clip-rule="evenodd" d="M2.71428 1H10.1267C11.0374 1 11.8935 1.45148 12.4315 2.21555L14.4904 5.1386C14.8133 5.59703 15.3269 5.86793 15.8733 5.86793H24.4286V7.05661H15.8733C14.9626 7.05661 14.1065 6.60511 13.5685 5.84106L11.5096 2.91801C11.1867 2.45958 10.6731 2.18868 10.1267 2.18868H2.71428V1Z" fill="#242424" stroke="#242424" stroke-width="0.5"/>
</svg>
