<svg width="26" height="26" viewBox="0 0 26 26" fill="none" xmlns="http://www.w3.org/2000/svg">
<path d="M13 5.50704C14.3515 5.50704 15.4164 4.53052 15.4164 3.29108C15.4164 2.05164 14.3515 1.07512 13 1.07512C11.6485 1.07512 10.5836 2.0892 10.5836 3.29108C10.5836 4.53052 11.6485 5.50704 13 5.50704ZM13 1.82629C13.901 1.82629 14.5973 2.50235 14.5973 3.29108C14.5973 4.11737 13.8601 4.75587 13 4.75587C12.099 4.75587 11.4027 4.07981 11.4027 3.29108C11.4027 2.50235 12.099 1.82629 13 1.82629ZM7.22526 5.0939C8.45392 5.0939 9.43686 4.19249 9.43686 3.06573C9.43686 1.93897 8.45392 1.07512 7.22526 1.07512C5.99659 1.07512 5.01365 1.97653 5.01365 3.10329C5.01365 4.23005 5.99659 5.0939 7.22526 5.0939ZM7.22526 1.82629C8.00341 1.82629 8.61775 2.38967 8.61775 3.10329C8.61775 3.77934 8.00341 4.34272 7.22526 4.34272C6.4471 4.34272 5.83276 3.77934 5.83276 3.06573C5.83276 2.38967 6.4471 1.82629 7.22526 1.82629ZM16.4812 3.10329C16.4812 3.21596 16.4812 3.32864 16.5222 3.40376C16.686 4.34272 17.587 5.0939 18.6928 5.0939C19.0614 5.0939 19.43 4.98122 19.7167 4.83099C19.7577 4.83099 19.7577 4.79343 19.7986 4.79343C19.8396 4.75587 19.8805 4.75587 19.9215 4.71831C20.5358 4.34272 20.9044 3.74178 20.9044 3.02817C20.9044 1.90141 19.9215 1 18.6928 1C17.4642 1 16.4812 1.90141 16.4812 3.02817V3.10329ZM18.6928 1.82629C19.471 1.82629 20.0853 2.38967 20.0853 3.10329C20.0853 3.51643 19.8396 3.89202 19.5119 4.11737C19.2662 4.26761 19.0205 4.34272 18.7338 4.34272C17.9556 4.34272 17.3413 3.77934 17.3413 3.10329C17.3413 2.38967 17.9556 1.82629 18.6928 1.82629ZM21.1911 17.0376V13.5822C21.314 13.6197 21.4778 13.6573 21.6416 13.6573C22.3379 13.6573 22.8703 13.1315 22.8703 12.4554V8.09859C22.8703 7.79812 22.8294 7.53521 22.7065 7.2723C22.7065 7.19718 22.7065 7.12207 22.6655 7.04695C22.2969 6.29577 21.5188 5.80751 20.6997 5.73239H16.8498C16.2355 5.73239 15.6621 5.95775 15.2526 6.33333H10.9113C10.7884 6.33333 10.6655 6.33333 10.5836 6.37089C10.1331 5.9953 9.55973 5.76995 8.98635 5.76995H5.42321C4.11263 5.76995 3.00683 6.8216 3.00683 8.13615V12.493C3.00683 12.7934 3.12969 13.0939 3.37543 13.3192C3.62116 13.5446 3.90785 13.6948 4.27645 13.6948C4.44027 13.6948 4.56314 13.6573 4.72696 13.6197V17.0751C2.31058 17.939 1 19.1033 1 20.4178C1 22.9718 6.28328 25 13 25C19.7167 25 25 22.9718 25 20.4178C24.959 19.0657 23.6075 17.9014 21.1911 17.0376ZM16.8908 6.48357H20.4949C21.3549 6.48357 22.0921 7.19718 22.0921 8.09859V12.4178C22.0921 12.6808 21.8874 12.8685 21.6416 12.8685C21.5188 12.8685 21.3959 12.7934 21.3549 12.7559C21.273 12.6807 21.2321 12.5305 21.2321 12.4178V9.60094C21.2321 9.41315 21.0683 9.22535 20.8225 9.22535C20.6177 9.22535 20.413 9.37559 20.413 9.60094V18.7653C20.413 19.1408 20.1263 19.4413 19.7577 19.4413C19.3891 19.4413 19.1024 19.1408 19.1024 18.7653V13.6948C19.1024 13.507 18.9386 13.3192 18.6928 13.3192C18.4881 13.3192 18.2833 13.4695 18.2833 13.6948V18.7277C18.2833 19.1033 17.9966 19.4038 17.628 19.4038C17.4232 19.4038 17.2594 19.2911 17.1775 19.216C17.0546 19.0657 16.9727 18.9155 16.9727 18.7277V14.9718C17.3823 14.7465 17.6689 14.3333 17.6689 13.8451V8.96244C17.6689 7.94836 17.0956 7.08451 16.2355 6.6338C16.4403 6.52113 16.686 6.48357 16.8908 6.48357ZM10.9522 7.08451H15.0068C16.0307 7.08451 16.8498 7.9108 16.8498 8.96244V13.8451C16.8498 14.1455 16.6041 14.4085 16.3174 14.4085C16.0307 14.4085 15.785 14.1455 15.785 13.8451V10.6526C15.785 10.4648 15.6212 10.277 15.3754 10.277C15.1706 10.277 14.9659 10.4272 14.9659 10.6526V20.9812C14.9659 21.4319 14.5973 21.8075 14.1877 21.8075C13.7782 21.8075 13.4096 21.4319 13.4096 20.9812V15.2723C13.4096 15.0845 13.2457 14.8967 13 14.8967C12.7952 14.8967 12.5904 15.0469 12.5904 15.2723V20.9437C12.5904 21.3944 12.2218 21.77 11.8123 21.77C11.4027 21.77 11.0341 21.3944 11.0341 20.9437V10.615C11.0341 10.4272 10.8703 10.2394 10.6246 10.2394C10.4198 10.2394 10.215 10.3897 10.215 10.615V13.8075C10.215 14.108 9.96928 14.3709 9.68259 14.3709C9.3959 14.3709 9.15017 14.108 9.15017 13.8075V8.92488C9.10922 7.9108 9.96928 7.08451 10.9522 7.08451ZM4.68601 12.4554C4.68601 12.7183 4.48123 12.9061 4.23549 12.9061C4.11263 12.9061 4.03072 12.8685 3.94881 12.7934C3.86689 12.7183 3.82594 12.5681 3.82594 12.4554V8.09859C3.82594 7.19718 4.52218 6.48357 5.42321 6.48357H8.98635C9.23208 6.48357 9.47782 6.55869 9.68259 6.6338C8.86348 7.08451 8.2901 7.94836 8.2901 8.92488V13.8075C8.2901 14.2582 8.53584 14.6714 8.90444 14.8967V18.7277C8.90444 19.1033 8.61775 19.4038 8.24915 19.4038C8.08532 19.4038 7.9215 19.3286 7.79863 19.216C7.67577 19.1033 7.59386 18.9155 7.59386 18.7277V13.6948C7.59386 13.507 7.43003 13.3192 7.1843 13.3192C6.97952 13.3192 6.77474 13.4695 6.77474 13.6948V18.7277C6.77474 19.1033 6.48805 19.4038 6.11945 19.4038C5.75085 19.4038 5.46416 19.1033 5.46416 18.7277V9.60094C5.46416 9.41315 5.30034 9.22535 5.05461 9.22535C4.84983 9.22535 4.64505 9.37559 4.64505 9.60094L4.68601 12.4554ZM12.959 24.2113C6.28328 24.2113 1.77816 22.2207 1.77816 20.3803C1.77816 19.4789 2.843 18.5399 4.68601 17.8263V18.7277C4.68601 19.5164 5.3413 20.1549 6.16041 20.1549C6.56997 20.1549 6.93857 19.9671 7.22526 19.7042C7.51195 19.9671 7.88055 20.1174 8.2901 20.1174C9.10921 20.1174 9.76451 19.4789 9.76451 18.6901V15.0845C9.92833 15.0845 10.0921 15.0469 10.215 14.9718V20.8685C10.215 21.7324 10.9522 22.446 11.8123 22.446C12.3038 22.446 12.7133 22.2207 13 21.9202C13.2867 22.2582 13.6962 22.446 14.1877 22.446C15.0478 22.446 15.785 21.7324 15.785 20.9061V15.0469C15.9079 15.0845 16.0307 15.1221 16.1945 15.1596V18.7653C16.1945 19.1408 16.3584 19.4789 16.6041 19.7793C16.8908 20.0423 17.2594 20.1925 17.6689 20.1925C18.0785 20.1925 18.4471 20.0047 18.7338 19.7418C19.0205 20.0047 19.3891 20.1925 19.7986 20.1925C20.6177 20.1925 21.273 19.554 21.273 18.7653V17.8638C23.157 18.5775 24.2218 19.4789 24.2218 20.4178C24.1399 22.2207 19.6348 24.2113 12.959 24.2113Z" fill="#242424" stroke="#242424" stroke-width="0.5"/>
</svg>
