<svg width="26" height="26" viewBox="0 0 26 26" fill="none" xmlns="http://www.w3.org/2000/svg">
<path d="M18.3387 2.42687C12.759 -0.418128 5.94527 1.13494 2.26303 5.80834V2.8099C2.26303 2.4787 1.98027 2.21017 1.63151 2.21017C1.28276 2.21017 1 2.4787 1 2.8099V7.60849C1.00023 7.93947 1.28292 8.20771 1.63151 8.20749H6.68363C7.03238 8.20749 7.31515 7.93896 7.31515 7.60776C7.31515 7.27656 7.03238 7.00803 6.68363 7.00803H2.92415C5.01689 4.0418 8.52475 2.2158 12.332 2.21017C18.61 2.20094 23.7072 7.02662 23.7169 12.9887C23.7267 18.9506 18.6453 23.7913 12.3673 23.8005C12.0185 23.8005 11.7357 24.0691 11.7357 24.4003C11.7357 24.7315 12.0185 25 12.3673 25C17.0193 24.9979 21.2939 22.5686 23.4944 18.6762C26.7956 12.837 24.4873 5.56192 18.3387 2.42687ZM12.3673 8.20749C12.0185 8.20749 11.7357 8.47603 11.7357 8.80722V13.006C11.736 13.3371 12.0187 13.6053 12.3673 13.6051H15.5248C15.8736 13.6051 16.1564 13.3366 16.1564 13.0054C16.1564 12.6742 15.8736 12.4056 15.5248 12.4056H12.9988V8.80722C12.9988 8.47603 12.716 8.20749 12.3673 8.20749Z" fill="#242424" stroke="#242424" stroke-width="0.5"/>
</svg>
