<svg width="26" height="26" viewBox="0 0 26 26" fill="none" xmlns="http://www.w3.org/2000/svg">
<mask id="mask0_2_127" style="mask-type:luminance" maskUnits="userSpaceOnUse" x="0" y="0" width="26" height="26">
<path d="M1 1H25V25H1V1Z" fill="white" stroke="white" stroke-width="0.3"/>
</mask>
<g mask="url(#mask0_2_127)">
<path d="M19.4002 12.1999C21.6654 12.2001 23.7074 10.8358 24.5745 8.74311C25.4413 6.65041 24.9621 4.2416 23.3604 2.63986C21.4355 0.707032 18.3975 0.443361 16.1686 2.01557C13.9395 3.58797 13.1686 6.53813 14.3435 9.00011H11.657C12.8293 6.53861 12.0577 3.59045 9.82973 2.01891C7.60194 0.447268 4.56584 0.709652 2.64035 2.63986C0.824002 4.45154 0.471583 7.26622 1.78551 9.47005C3.09924 11.6736 5.7429 12.7019 8.20031 11.9654V13.0002H3.80022C3.13759 13.0002 2.60019 13.5374 2.60019 14.2001V15.0003H2.20031C1.53748 15.0003 1.00028 15.5375 1.00028 16.2002V18.6003C1.00028 19.2629 1.53748 19.8003 2.20031 19.8003H2.60019V23.8001C2.60019 24.4629 3.13759 25.0001 3.80022 25.0001H19.8005C20.4632 25.0001 21.0004 24.4629 21.0004 23.8001V19.3686L23.1124 20.8487C23.4792 21.1053 23.9586 21.1364 24.3555 20.9294C24.7524 20.7223 25.001 20.3114 25.0004 19.8637V13.7367C25.0004 13.2893 24.7517 12.879 24.3547 12.6723C23.9578 12.4657 23.479 12.497 23.1124 12.7534L21.0004 14.2318V14.2002C21.0004 13.5376 20.4632 13.0003 19.8005 13.0003H17.4004V11.8282C18.0389 12.0733 18.7166 12.1992 19.4004 12.2002L19.4002 12.1999ZM17.1263 9.43994L18.0119 8.55399C18.3061 8.7637 18.644 8.90401 19.0001 8.96393V11.3763C18.4462 11.3311 17.9045 11.1882 17.4002 10.9539V10.2001C17.3995 9.92265 17.3027 9.65412 17.1263 9.43994ZM17.0362 6.20005H14.6197C14.7009 5.20582 15.0928 4.26237 15.7398 3.50318L17.4482 5.21159C17.2377 5.5056 17.0969 5.84354 17.0362 6.20005ZM17.8003 6.59994C17.8003 5.71623 18.5165 5.00001 19.4002 5.00001C20.2839 5.00001 21.0001 5.71623 21.0001 6.59994C21.0001 7.48366 20.2839 8.20007 19.4002 8.20007C18.5165 8.20007 17.8003 7.48366 17.8003 6.59994ZM19.8003 8.96393C20.1564 8.90401 20.4943 8.76371 20.7885 8.55399L22.497 10.2624C21.7376 10.9086 20.7941 11.2998 19.8003 11.3804V8.96393ZM21.3542 7.98832C21.5639 7.69431 21.7041 7.35618 21.7642 7.00005H24.1807C24.0995 7.99428 23.7076 8.93773 23.0606 9.69673L21.3542 7.98832ZM21.7642 6.20008C21.7041 5.84373 21.5639 5.50582 21.3542 5.21161L23.0626 3.5032C23.7089 4.26259 24.1 5.20604 24.1806 6.20008H21.7642ZM20.7886 4.64592C20.4944 4.43621 20.1564 4.29608 19.8003 4.23598V1.81969C20.7943 1.90063 21.738 2.29252 22.497 2.93954L20.7886 4.64592ZM19.0001 4.23598C18.644 4.29608 18.3061 4.4362 18.0119 4.64592L16.3034 2.93771C17.0628 2.29127 18.0063 1.90012 19.0001 1.81971V4.23598ZM14.6186 7.00002H17.0362C17.0963 7.35619 17.2364 7.69428 17.4461 7.9883L16.4117 9.02274C16.3421 9.00897 16.2712 9.00134 16.2001 9.00004H15.2474C14.8914 8.38838 14.6767 7.70505 14.6186 7.00002ZM8.20049 10.2001V11.1253C7.81326 11.2626 7.40981 11.3493 7.00047 11.3832V8.96396C7.35663 8.90404 7.69473 8.76374 7.98874 8.55402L8.68077 9.24604C8.3795 9.47064 8.20144 9.82404 8.20049 10.2001ZM8.96435 6.20005C8.90443 5.84371 8.76413 5.50579 8.55441 5.21159L10.2628 3.50318C10.9091 4.26256 11.3002 5.20601 11.3808 6.20005H8.96435ZM6.60036 8.20005C5.71665 8.20005 5.00043 7.48363 5.00043 6.59992C5.00043 5.71621 5.71665 4.99998 6.60036 4.99998C7.48408 4.99998 8.20049 5.71621 8.20049 6.59992C8.20049 7.02438 8.0319 7.43133 7.73175 7.7313C7.43179 8.03145 7.02481 8.20005 6.60036 8.20005ZM7.98874 4.6459C7.69473 4.43618 7.3566 4.29606 7.00047 4.23596V1.81967C7.9947 1.90061 8.93815 2.2925 9.69715 2.93952L7.98874 4.6459ZM6.2005 4.23596C5.84415 4.29606 5.50624 4.43618 5.21203 4.6459L3.50363 2.93768C4.26301 2.29125 5.20646 1.9001 6.2005 1.81969V4.23596ZM4.64634 5.21156C4.43663 5.50576 4.29651 5.84371 4.2364 6.20003H1.82011C1.90106 5.2058 2.29295 4.26235 2.93996 3.50316L4.64634 5.21156ZM4.2364 7C4.29651 7.35616 4.43662 7.69426 4.64634 7.98828L2.93813 9.69668C2.29169 8.9373 1.90055 7.99385 1.82013 7H4.2364ZM5.21201 8.55397C5.5062 8.76368 5.84415 8.90399 6.20048 8.96391V11.3804C5.20624 11.2993 4.26279 10.9074 3.5036 10.2603L5.21201 8.55397ZM9.56593 9L8.55441 7.98829C8.76412 7.69428 8.90443 7.35615 8.96435 7.00001H11.3745C11.3198 7.70433 11.1086 8.38763 10.7563 9H9.56593ZM2.2003 19C1.97942 19 1.80023 18.821 1.80023 18.6001V16.2C1.80023 15.9791 1.97942 15.8001 2.2003 15.8001H2.60019V19H2.2003ZM23.5712 13.4088C23.6933 13.3234 23.8529 13.3132 23.9851 13.382C24.1174 13.4509 24.2004 13.5874 24.2004 13.7365V19.8636C24.2004 20.0126 24.1174 20.1494 23.9851 20.2182C23.8529 20.2871 23.6933 20.2767 23.5712 20.1913L22.6004 19.5117V16.9999C22.6004 16.779 22.4212 16.6 22.2003 16.6C21.9795 16.6 21.8005 16.779 21.8005 16.9999V18.9516L21.0003 18.3916V15.2083L23.5712 13.4088ZM20.2003 14.2V23.7998C20.2003 24.0209 20.0213 24.1999 19.8004 24.1999H3.80012C3.57924 24.1999 3.40023 24.0209 3.40023 23.7998V14.2C3.40023 13.9791 3.57924 13.8001 3.80012 13.8001H19.8004C20.0213 13.8001 20.2003 13.9791 20.2003 14.2ZM9.00039 13.0001V10.2002C9.00039 9.97911 9.1794 9.8001 9.40028 9.8001H16.2005C16.2572 9.79954 16.3134 9.81219 16.3646 9.83694C16.5077 9.90114 16.5998 10.0431 16.6005 10.2002V13.0001L9.00039 13.0001Z" fill="#242424" stroke="#242424" stroke-width="0.3"/>
</g>
</svg>
