<svg width="16" height="16" viewBox="0 0 16 16" fill="none" xmlns="http://www.w3.org/2000/svg">
<path d="M6.39922 1.59998C5.97487 1.59998 5.56791 1.76855 5.26785 2.0686C4.96779 2.36866 4.79922 2.77563 4.79922 3.19998V11.2C4.79922 11.6243 4.96779 12.0313 5.26785 12.3313C5.56791 12.6314 5.97487 12.8 6.39922 12.8H11.1992C11.6236 12.8 12.0305 12.6314 12.3306 12.3313C12.6306 12.0313 12.7992 11.6243 12.7992 11.2V3.19998C12.7992 2.77563 12.6306 2.36866 12.3306 2.0686C12.0305 1.76855 11.6236 1.59998 11.1992 1.59998H6.39922ZM5.59922 3.19998C5.59922 2.9878 5.6835 2.78432 5.83353 2.63429C5.98356 2.48426 6.18705 2.39998 6.39922 2.39998H11.1992C11.4114 2.39998 11.6149 2.48426 11.7649 2.63429C11.9149 2.78432 11.9992 2.9878 11.9992 3.19998V11.2C11.9992 11.4121 11.9149 11.6156 11.7649 11.7657C11.6149 11.9157 11.4114 12 11.1992 12H6.39922C6.18705 12 5.98356 11.9157 5.83353 11.7657C5.6835 11.6156 5.59922 11.4121 5.59922 11.2V3.19998ZM3.19922 4.79998C3.19923 4.51912 3.27316 4.24322 3.41359 4C3.55402 3.75678 3.75599 3.5548 3.99922 3.41438V11.6C3.99922 12.1304 4.20993 12.6391 4.58501 13.0142C4.96008 13.3893 5.46879 13.6 5.99922 13.6H10.9848C10.8444 13.8432 10.6424 14.0452 10.3992 14.1856C10.156 14.326 9.88007 14.4 9.59922 14.4H5.99922C5.25661 14.4 4.54442 14.105 4.01932 13.5799C3.49422 13.0548 3.19922 12.3426 3.19922 11.6V4.79998Z" fill="#666666"/>
</svg>
