<svg width="18" height="18" viewBox="0 0 18 18" fill="none" xmlns="http://www.w3.org/2000/svg">
<path d="M9 11.25C10.2426 11.25 11.25 10.2426 11.25 9C11.25 7.75736 10.2426 6.75 9 6.75C7.75736 6.75 6.75 7.75736 6.75 9C6.75 10.2426 7.75736 11.25 9 11.25Z" fill="#777777"/>
<path d="M17.2558 8.38828C16.3256 6.94969 15.1187 5.72766 13.7659 4.85402C12.2693 3.88652 10.6169 3.375 8.98777 3.375C7.49293 3.375 6.02304 3.80215 4.6189 4.64449C3.18699 5.50336 1.88972 6.75809 0.762967 8.37352C0.635766 8.55608 0.565712 8.77235 0.561705 8.99482C0.557699 9.2173 0.619922 9.43594 0.740467 9.62297C1.66894 11.076 2.8639 12.2998 4.19562 13.1614C5.69504 14.1328 7.30871 14.625 8.98777 14.625C10.6299 14.625 12.2858 14.1177 13.7761 13.1583C15.1282 12.2875 16.3326 11.0609 17.2593 9.61031C17.3757 9.42763 17.4373 9.21539 17.4366 8.99878C17.436 8.78217 17.3733 8.57029 17.2558 8.38828ZM8.99972 12.375C8.33221 12.375 7.67969 12.1771 7.12467 11.8062C6.56966 11.4354 6.13708 10.9083 5.88163 10.2916C5.62619 9.67486 5.55935 8.99626 5.68957 8.34157C5.8198 7.68688 6.14124 7.08552 6.61324 6.61351C7.08524 6.14151 7.68661 5.82008 8.34129 5.68985C8.99598 5.55962 9.67458 5.62646 10.2913 5.88191C10.908 6.13735 11.4351 6.56993 11.8059 7.12495C12.1768 7.67997 12.3747 8.33249 12.3747 9C12.3737 9.89479 12.0178 10.7526 11.3851 11.3854C10.7524 12.0181 9.89452 12.374 8.99972 12.375Z" fill="#777777"/>
<path d="M1 1L17 17" stroke="#777777" stroke-width="1.5" stroke-linecap="round"/>
</svg>
