<svg width="48" height="48" viewBox="0 0 48 48" fill="none" xmlns="http://www.w3.org/2000/svg">
<path d="M11.3249 39.9441L11.3213 39.9421C10.526 39.4914 10.0039 38.5961 10.0039 37.5937V10.4062C10.0039 9.40053 10.5255 8.50872 11.3213 8.05776L11.3213 8.05777L11.3266 8.05475C11.6828 7.85004 12.0874 7.74477 12.4982 7.74994C12.909 7.75511 13.3109 7.87052 13.6618 8.08413L13.6618 8.08415L13.6681 8.08795L36.8944 21.9909C37.2316 22.2042 37.5096 22.499 37.7028 22.8482C37.8976 23.2002 37.9997 23.5958 37.9997 23.998C37.9997 24.4003 37.8976 24.7959 37.7028 25.1479C37.5096 25.4971 37.2316 25.7919 36.8944 26.0052L13.6643 39.9119L13.6606 39.9142C13.3006 40.1318 12.8883 40.2478 12.4677 40.2499C12.0667 40.2486 11.673 40.1433 11.3249 39.9441Z" stroke="#FF852E" stroke-width="2"/>
</svg>
