<svg width="20" height="20" viewBox="0 0 20 20" fill="none" xmlns="http://www.w3.org/2000/svg">
<path d="M13.7507 7.5C14.0822 7.5 14.4002 7.3683 14.6346 7.13388C14.869 6.89946 15.0007 6.58152 15.0007 6.25C15.0007 5.91848 14.869 5.60054 14.6346 5.36612C14.4002 5.1317 14.0822 5 13.7507 5C13.4192 5 13.1012 5.1317 12.8668 5.36612C12.6324 5.60054 12.5007 5.91848 12.5007 6.25C12.5007 6.58152 12.6324 6.89946 12.8668 7.13388C13.1012 7.3683 13.4192 7.5 13.7507 7.5ZM3.23445 12.67C3.00172 12.439 2.817 12.1642 2.69095 11.8615C2.5649 11.5588 2.5 11.2342 2.5 10.9063C2.5 10.5783 2.5649 10.2537 2.69095 9.95097C2.817 9.64826 3.00172 9.37349 3.23445 9.1425L9.15945 3.2475C9.62814 2.78192 10.2613 2.51966 10.922 2.5175L14.9832 2.5C15.314 2.49768 15.642 2.56105 15.9482 2.68643C16.2543 2.81181 16.5326 2.99671 16.7667 3.23042C17.0009 3.46412 17.1864 3.74198 17.3124 4.04789C17.4383 4.3538 17.5024 4.68167 17.5007 5.0125L17.4707 9.21625C17.4653 9.87207 17.2012 10.4992 16.7357 10.9613L10.8982 16.77C10.4271 17.2377 9.79017 17.5002 9.12633 17.5002C8.46249 17.5002 7.82557 17.2377 7.35445 16.77L3.23445 12.67ZM4.1207 10.025C4.00453 10.1405 3.91233 10.2778 3.84941 10.429C3.7865 10.5803 3.75411 10.7424 3.75411 10.9063C3.75411 11.0701 3.7865 11.2322 3.84941 11.3835C3.91233 11.5347 4.00453 11.672 4.1207 11.7875L8.2407 15.8875C8.7307 16.375 9.5232 16.375 10.0132 15.8875L15.8507 10.0788C16.083 9.84753 16.2146 9.53398 16.217 9.20625L16.247 5.0025C16.2476 4.83729 16.2155 4.6736 16.1525 4.52087C16.0895 4.36814 15.9969 4.22942 15.88 4.11272C15.763 3.99601 15.6241 3.90365 15.4713 3.84096C15.3184 3.77827 15.1547 3.74651 14.9895 3.7475L10.927 3.76375C10.5966 3.76483 10.28 3.89596 10.0457 4.12875L4.1207 10.025Z" fill="#070707"/>
</svg>
