<svg width="20" height="20" viewBox="0 0 20 20" fill="none" xmlns="http://www.w3.org/2000/svg">
<path d="M7.15489 6.86394L9.31989 2.50394C9.38291 2.37776 9.47984 2.27163 9.5998 2.19745C9.71976 2.12328 9.85802 2.08398 9.99906 2.08398C10.1401 2.08398 10.2784 2.12328 10.3983 2.19745C10.5183 2.27163 10.6152 2.37776 10.6782 2.50394L12.8432 6.86394L17.6832 7.56727C17.8228 7.58663 17.9542 7.64485 18.0623 7.73528C18.1704 7.82571 18.2509 7.94472 18.2946 8.07871C18.3383 8.2127 18.3435 8.35628 18.3095 8.49306C18.2755 8.62984 18.2037 8.75432 18.1024 8.85227L14.6007 12.2439L15.4274 17.0356C15.5332 17.6506 14.8832 18.1189 14.3274 17.8289L9.99906 15.5656L5.66989 17.8289C5.11489 18.1198 4.46489 17.6506 4.57073 17.0348L5.39739 12.2431L1.89573 8.85144C1.79488 8.75342 1.72356 8.62907 1.68986 8.49253C1.65617 8.35599 1.66145 8.21274 1.70512 8.07906C1.74878 7.94537 1.82907 7.82662 1.93687 7.7363C2.04466 7.64597 2.17563 7.5877 2.31489 7.5681L7.15489 6.86394Z" stroke="#FF852E" stroke-width="1.5" stroke-linecap="round" stroke-linejoin="round"/>
</svg>
