<svg width="16" height="16" viewBox="0 0 16 16" fill="none" xmlns="http://www.w3.org/2000/svg">
<path d="M14 7.38592C14 7.17627 13.9598 6.96867 13.8816 6.77497C13.8034 6.58127 13.6888 6.40528 13.5444 6.25703C13.3999 6.10878 13.2285 5.99118 13.0397 5.91095C12.851 5.83072 12.6487 5.78942 12.4444 5.78942H8.66667V5.67197C9.05628 5.52998 9.39356 5.26778 9.63226 4.92132C9.87097 4.57486 9.99942 4.16111 10 3.73678C10 1.9658 8.36778 1.10768 8.29833 1.07233C8.20571 1.02477 8.10357 1 8 1C7.89643 1 7.79429 1.02477 7.70167 1.07233C7.63222 1.10768 6 1.9658 6 3.73678C6.00058 4.16111 6.12903 4.57486 6.36774 4.92132C6.60644 5.26778 6.94372 5.52998 7.33333 5.67197V5.78942H3.55556C3.143 5.78942 2.74733 5.95763 2.45561 6.25703C2.16389 6.55643 2 6.96251 2 7.38592V8.71615C2.00032 9.23579 2.1554 9.7429 2.44444 10.1695V12.4035C2.44444 12.8269 2.60833 13.233 2.90006 13.5324C3.19178 13.8318 3.58744 14 4 14H12C12.4126 14 12.8082 13.8318 13.0999 13.5324C13.3917 13.233 13.5556 12.8269 13.5556 12.4035V10.1695C13.8446 9.7429 13.9997 9.23579 14 8.71615V7.38592ZM7.77778 2.70647C7.8476 2.63388 7.92182 2.56589 8 2.50291C8.0783 2.56575 8.15253 2.63374 8.22222 2.70647C8.51833 3.0212 8.66667 3.36787 8.66667 3.73678C8.66667 3.91824 8.59643 4.09228 8.4714 4.22059C8.34638 4.34891 8.17681 4.42099 8 4.42099C7.82319 4.42099 7.65362 4.34891 7.5286 4.22059C7.40357 4.09228 7.33333 3.91824 7.33333 3.73678C7.33333 3.36787 7.48389 3.0212 7.77778 2.70647ZM3.33333 7.38592C3.33333 7.32544 3.35675 7.26743 3.39842 7.22465C3.4401 7.18188 3.49662 7.15785 3.55556 7.15785H12.4444C12.5034 7.15785 12.5599 7.18188 12.6016 7.22465C12.6433 7.26743 12.6667 7.32544 12.6667 7.38592V8.71615C12.6667 9.34905 12.1822 9.87761 11.5872 9.89414C11.4387 9.89849 11.2909 9.87222 11.1524 9.8169C11.014 9.76157 10.8877 9.67832 10.7812 9.57205C10.6747 9.46578 10.59 9.33866 10.5321 9.19821C10.4743 9.05776 10.4445 8.90683 10.4444 8.75435C10.4444 8.57289 10.3742 8.39886 10.2492 8.27054C10.1242 8.14223 9.95459 8.07014 9.77778 8.07014C9.60097 8.07014 9.4314 8.14223 9.30637 8.27054C9.18135 8.39886 9.11111 8.57289 9.11111 8.75435C9.11111 9.0568 8.99405 9.34685 8.78567 9.56071C8.5773 9.77457 8.29468 9.89471 8 9.89471C7.70532 9.89471 7.4227 9.77457 7.21433 9.56071C7.00595 9.34685 6.88889 9.0568 6.88889 8.75435C6.88889 8.57289 6.81865 8.39886 6.69363 8.27054C6.5686 8.14223 6.39903 8.07014 6.22222 8.07014C6.04541 8.07014 5.87584 8.14223 5.75082 8.27054C5.62579 8.39886 5.55556 8.57289 5.55556 8.75435C5.55562 8.90688 5.52586 9.05787 5.46805 9.19839C5.41024 9.33891 5.32556 9.46609 5.219 9.57242C5.11245 9.67875 4.9862 9.76206 4.84771 9.81742C4.70923 9.87278 4.56133 9.89906 4.41278 9.89471C3.81778 9.87761 3.33333 9.34905 3.33333 8.71615V7.38592ZM12 12.6316H4C3.94106 12.6316 3.88454 12.6075 3.84287 12.5648C3.80119 12.522 3.77778 12.464 3.77778 12.4035V11.1656C3.97234 11.2243 4.17342 11.2571 4.37611 11.2631C4.70292 11.2736 5.02842 11.2161 5.33306 11.0943C5.6377 10.9724 5.9152 10.7885 6.14889 10.5538C6.17444 10.5288 6.19889 10.5025 6.22278 10.4769C6.45128 10.7254 6.72682 10.9233 7.03253 11.0586C7.33823 11.194 7.66764 11.2637 8.00056 11.2637C8.33347 11.2637 8.66288 11.194 8.96859 11.0586C9.27429 10.9233 9.54983 10.7254 9.77833 10.4769C9.80222 10.5025 9.82667 10.5288 9.85222 10.5538C10.3073 11.0105 10.9191 11.2652 11.5556 11.2631H11.625C11.8273 11.257 12.028 11.2242 12.2222 11.1656V12.4035C12.2222 12.464 12.1988 12.522 12.1571 12.5648C12.1155 12.6075 12.0589 12.6316 12 12.6316Z" fill="#13C1B7"/>
</svg>
