<svg width="24" height="24" viewBox="0 0 24 24" fill="none" xmlns="http://www.w3.org/2000/svg">
<circle cx="12" cy="12" r="12" fill="#FF4D4D" fill-opacity="0.1"/>
<path d="M12 18.6667C11.1778 18.6667 10.4027 18.5085 9.67467 18.192C8.94711 17.8751 8.31111 17.4445 7.76667 16.9C7.22222 16.3556 6.79156 15.7196 6.47467 14.992C6.15822 14.264 6 13.4889 6 12.6667H7.33333C7.33333 13.9556 7.78889 15.0556 8.7 15.9667C9.61111 16.8778 10.7111 17.3334 12 17.3334C13.2889 17.3334 14.3889 16.8778 15.3 15.9667C16.2111 15.0556 16.6667 13.9556 16.6667 12.6667H18C18 13.4889 17.8418 14.264 17.5253 14.992C17.2084 15.7196 16.7778 16.3556 16.2333 16.9C15.6889 17.4445 15.0529 17.8751 14.3253 18.192C13.5973 18.5085 12.8222 18.6667 12 18.6667ZM6 12.6667C6 11.8445 6.15822 11.0694 6.47467 10.3414C6.79156 9.6138 7.22222 8.9778 7.76667 8.43335C8.31111 7.88891 8.94711 7.45846 9.67467 7.14202C10.4027 6.82513 11.1778 6.66669 12 6.66669C12.6889 6.66669 13.35 6.7778 13.9833 7.00002C14.6167 7.22224 15.2111 7.54446 15.7667 7.96669L16.7 7.03335L17.6333 7.96669L16.7 8.90002C17.1222 9.45558 17.4444 10.05 17.6667 10.6834C17.8889 11.3167 18 11.9778 18 12.6667H16.6667C16.6667 11.3778 16.2111 10.2778 15.3 9.36669C14.3889 8.45558 13.2889 8.00002 12 8.00002C10.7111 8.00002 9.61111 8.45558 8.7 9.36669C7.78889 10.2778 7.33333 11.3778 7.33333 12.6667H6ZM10 6.00002V4.66669H14V6.00002H10ZM12 8.00002C10.8222 8.00002 9.8 8.38335 8.93333 9.15002C8.06667 9.91669 7.55 10.8667 7.38333 12H9.75L10.6167 13.6L13.3333 8.83335L15.0667 12H16.6167C16.45 10.8667 15.9333 9.91669 15.0667 9.15002C14.2 8.38335 13.1778 8.00002 12 8.00002ZM12 17.3334C13.1778 17.3334 14.2 16.95 15.0667 16.1834C15.9333 15.4167 16.45 14.4667 16.6167 13.3334H14.25L13.3833 11.7334L10.6667 16.5L8.93333 13.3334H7.38333C7.55 14.4667 8.06667 15.4167 8.93333 16.1834C9.8 16.95 10.8222 17.3334 12 17.3334ZM12 17.3334C10.7111 17.3334 9.61111 16.8778 8.7 15.9667C7.78889 15.0556 7.33333 13.9556 7.33333 12.6667C7.33333 11.3778 7.78889 10.2778 8.7 9.36669C9.61111 8.45558 10.7111 8.00002 12 8.00002C13.2889 8.00002 14.3889 8.45558 15.3 9.36669C16.2111 10.2778 16.6667 11.3778 16.6667 12.6667C16.6667 13.9556 16.2111 15.0556 15.3 15.9667C14.3889 16.8778 13.2889 17.3334 12 17.3334Z" fill="#FF4D4D"/>
</svg>
