<svg width="19" height="15" viewBox="0 0 19 15" fill="none" xmlns="http://www.w3.org/2000/svg">
<rect width="18.3527" height="14.4217" fill="white" fill-opacity="0.01"/>
<mask id="mask0_0_758" style="mask-type:luminance" maskUnits="userSpaceOnUse" x="0" y="0" width="19" height="15">
<rect width="18.3527" height="14.4217" fill="white"/>
</mask>
<g mask="url(#mask0_0_758)">
<path fill-rule="evenodd" clip-rule="evenodd" d="M9.83215 5.57713C9.83215 6.50304 9.83259 7.42142 9.83144 8.33981C9.83133 8.43547 9.83105 8.53278 9.81476 8.62651C9.75537 8.96848 9.46587 9.19251 9.12451 9.16814C8.78638 9.14405 8.52592 8.87798 8.52378 8.52976C8.51812 7.61768 8.52142 6.70544 8.52114 5.79331C8.52114 5.72009 8.52114 5.64688 8.52114 5.51275C8.25749 5.7758 8.03319 6.00076 7.80757 6.22435C7.6235 6.40677 7.406 6.483 7.15069 6.4133C6.68349 6.28581 6.49189 5.71406 6.82558 5.36539C7.456 4.7066 8.10591 4.06596 8.75982 3.43016C8.99175 3.20465 9.36599 3.2119 9.60363 3.44339C10.2472 4.07013 10.8832 4.70484 11.51 5.34838C11.761 5.60605 11.7321 6.01602 11.4799 6.25739C11.2263 6.50013 10.8362 6.50111 10.5697 6.25025C10.3352 6.02952 10.1094 5.79962 9.8793 5.57422C9.87639 5.57131 9.86706 5.57471 9.83215 5.57713ZM4.5825 12.4491C4.48728 12.4491 4.41374 12.4491 4.34015 12.4491C3.5718 12.4491 2.80346 12.4503 2.03512 12.4488C0.844847 12.4466 0.00268861 11.6072 0.00159095 10.4136C-0.000933566 7.63518 5.43023e-05 4.85674 0.00109705 2.07841C0.00153611 0.82876 0.82465 0.00290133 2.07529 0.00218787C5.52597 0.000267013 8.97665 0.00152929 12.4274 0.00152929C13.724 0.00152929 15.0205 -0.00275148 16.3171 0.00301109C17.3245 0.00751138 18.0935 0.609233 18.3008 1.5515C18.3387 1.72399 18.3498 1.90532 18.35 2.08258C18.3529 4.8473 18.3536 7.61196 18.3512 10.3766C18.3502 11.4672 17.6942 12.2587 16.6566 12.4292C16.5424 12.448 16.4243 12.448 16.308 12.4482C15.5397 12.4498 14.7713 12.4491 14.003 12.4491C13.9293 12.4491 13.8556 12.4491 13.7584 12.4491C13.7584 12.6177 13.7595 12.7667 13.7583 12.9156C13.7508 13.7953 13.1347 14.4155 12.2513 14.4191C11.037 14.4241 9.82276 14.4204 8.60851 14.4204C7.78528 14.4204 6.96206 14.4219 6.13884 14.42C5.19784 14.4177 4.58607 13.8013 4.5825 12.8557C4.58206 12.7272 4.5825 12.5987 4.5825 12.4491ZM9.17417 11.1377C11.5271 11.1377 13.8799 11.1379 16.2328 11.1376C16.8092 11.1376 17.0416 10.9039 17.0417 10.3252C17.0418 7.59508 17.0418 4.86494 17.0417 2.13479C17.0417 1.5424 16.8105 1.30943 16.2222 1.30938C11.5233 1.30927 6.82447 1.30927 2.12557 1.30938C1.54448 1.30938 1.31261 1.53895 1.31261 2.11449C1.31239 4.85149 1.31239 7.58849 1.31261 10.3255C1.31261 10.919 1.53444 11.1376 2.13616 11.1377C4.48213 11.1378 6.82815 11.1377 9.17417 11.1377ZM12.4277 12.466C10.2432 12.466 8.07368 12.466 5.89449 12.466C5.89449 12.5783 5.89444 12.6739 5.89449 12.7695C5.89471 13.1007 5.89998 13.1063 6.22592 13.1063C8.11879 13.1064 10.0116 13.1063 11.9045 13.1063C12.5042 13.1063 12.5154 13.0928 12.4277 12.466Z" fill="black"/>
</g>
</svg>
