<svg width="9" height="19" viewBox="0 0 9 19" fill="none" xmlns="http://www.w3.org/2000/svg">
<rect x="0.121887" y="0.749023" width="8.75624" height="17.502" fill="white" fill-opacity="0.01"/>
<mask id="mask0_0_752" style="mask-type:luminance" maskUnits="userSpaceOnUse" x="0" y="0" width="9" height="19">
<rect x="0.121887" y="0.749023" width="8.75624" height="17.502" fill="white"/>
</mask>
<g mask="url(#mask0_0_752)">
<path fill-rule="evenodd" clip-rule="evenodd" d="M4.02076 18.2511C3.79625 18.1558 3.55001 18.1563 3.31813 18.0865C1.94545 17.6726 0.985308 16.8042 0.434297 15.4849C0.203117 14.9314 0.122763 14.3477 0.123043 13.7498C0.124674 10.5026 0.117356 7.25549 0.126911 4.00843C0.130919 2.63995 0.764941 1.64438 1.99281 1.03576C2.26374 0.901435 2.55575 0.824483 2.85619 0.782768C2.89203 0.777781 2.93841 0.797637 2.96111 0.749023C3.18898 0.749023 3.4169 0.749023 3.64477 0.749023C3.76688 0.813856 3.90596 0.80048 4.03563 0.834318C5.53658 1.22607 6.48316 2.44317 6.48516 4.00284C6.48819 6.31567 6.48614 8.62845 6.48586 10.9413C6.48582 11.4141 6.49267 11.8871 6.48162 12.3596C6.45743 13.3888 5.64686 14.1975 4.5783 14.2696C3.61895 14.3345 2.70863 13.6008 2.54414 12.6351C2.52005 12.4935 2.5131 12.3524 2.51306 12.2102C2.51264 9.772 2.51403 7.33389 2.50942 4.89578C2.50914 4.75161 2.54857 4.71517 2.68905 4.72095C2.97341 4.73274 3.25894 4.73302 3.54321 4.72085C3.68499 4.71479 3.70937 4.76499 3.70923 4.89391C3.70564 7.32065 3.70755 9.74735 3.70503 12.1741C3.7048 12.4096 3.74386 12.625 3.9041 12.8078C4.11473 13.048 4.44998 13.137 4.75816 13.0309C5.0614 12.9265 5.26709 12.6602 5.28736 12.3446C5.29067 12.2935 5.29202 12.2422 5.29202 12.191C5.29225 9.46229 5.29323 6.73366 5.29165 4.00499C5.29109 3.06157 4.7687 2.3204 3.91547 2.0407C2.66314 1.63017 1.33399 2.5554 1.32439 3.87355C1.30831 6.07797 1.31898 8.28262 1.31856 10.4872C1.31838 11.6094 1.3132 12.7317 1.31987 13.8538C1.32928 15.4323 2.40175 16.7193 3.93565 17.0055C5.69621 17.3341 7.41259 16.0906 7.64773 14.3199C7.67337 14.1269 7.6798 13.9344 7.6798 13.7409C7.68022 10.8015 7.68171 7.86206 7.67588 4.92262C7.67556 4.75553 7.71704 4.71172 7.88092 4.72039C8.15926 4.73511 8.43924 4.73148 8.71797 4.72127C8.84521 4.71661 8.87867 4.74989 8.87811 4.87965C8.87266 6.13856 8.87485 7.39751 8.87485 8.65647C8.87485 10.3597 8.87671 12.063 8.87429 13.7663C8.8721 15.299 8.26497 16.5326 7.02559 17.441C6.42704 17.8798 5.74893 18.1285 5.01232 18.2184C4.97718 18.2227 4.92992 18.1975 4.9095 18.251C4.6133 18.2511 4.31701 18.2511 4.02076 18.2511Z" fill="black"/>
</g>
</svg>
