<svg width="16" height="16" viewBox="0 0 16 16" fill="none" xmlns="http://www.w3.org/2000/svg">
<g clip-path="url(#clip0_59_3354)">
<path d="M12.6673 2C13.1775 1.99997 13.6683 2.19488 14.0395 2.54486C14.4107 2.89483 14.6341 3.3734 14.664 3.88267L14.6673 4V10.6667C14.6673 11.1768 14.4724 11.6677 14.1225 12.0388C13.7725 12.41 13.2939 12.6334 12.7847 12.6633L12.6673 12.6667H10.2027L8.46265 13.8267C8.33989 13.9084 8.19763 13.9561 8.05041 13.9649C7.90318 13.9737 7.75626 13.9432 7.62465 13.8767L7.53798 13.8267L5.79932 12.6667H3.33398C2.82384 12.6667 2.33297 12.4718 1.96181 12.1218C1.59065 11.7718 1.36725 11.2933 1.33732 10.784L1.33398 10.6667V4C1.33396 3.48986 1.52887 2.99899 1.87884 2.62783C2.22881 2.25666 2.70739 2.03326 3.21665 2.00333L3.33398 2H12.6673ZM12.6673 3.33333H3.33398C3.1707 3.33335 3.01309 3.3933 2.89107 3.50181C2.76905 3.61032 2.69109 3.75983 2.67198 3.922L2.66732 4V10.6667C2.66734 10.83 2.72729 10.9876 2.83579 11.1096C2.9443 11.2316 3.09382 11.3096 3.25598 11.3287L3.33398 11.3333H5.79865C6.02361 11.3333 6.24492 11.3902 6.44198 11.4987L6.53865 11.5573L8.00065 12.532L9.46265 11.5573C9.6499 11.4324 9.86571 11.357 10.09 11.338L10.2027 11.3333H12.6673C12.8306 11.3333 12.9882 11.2734 13.1102 11.1649C13.2323 11.0563 13.3102 10.9068 13.3293 10.7447L13.334 10.6667V4C13.334 3.83671 13.274 3.67911 13.1655 3.55709C13.057 3.43506 12.9075 3.3571 12.7453 3.338L12.6673 3.33333ZM5.66732 6.66667C5.93253 6.66667 6.18689 6.77202 6.37442 6.95956C6.56196 7.1471 6.66732 7.40145 6.66732 7.66667C6.66732 7.93188 6.56196 8.18624 6.37442 8.37377C6.18689 8.56131 5.93253 8.66667 5.66732 8.66667C5.4021 8.66667 5.14775 8.56131 4.96021 8.37377C4.77267 8.18624 4.66732 7.93188 4.66732 7.66667C4.66732 7.40145 4.77267 7.1471 4.96021 6.95956C5.14775 6.77202 5.4021 6.66667 5.66732 6.66667ZM10.334 6.66667C10.5992 6.66667 10.8536 6.77202 11.0411 6.95956C11.2286 7.1471 11.334 7.40145 11.334 7.66667C11.334 7.93188 11.2286 8.18624 11.0411 8.37377C10.8536 8.56131 10.5992 8.66667 10.334 8.66667C10.0688 8.66667 9.81441 8.56131 9.62688 8.37377C9.43934 8.18624 9.33398 7.93188 9.33398 7.66667C9.33398 7.40145 9.43934 7.1471 9.62688 6.95956C9.81441 6.77202 10.0688 6.66667 10.334 6.66667Z" fill="#027DFC"/>
</g>
<defs>
<clipPath id="clip0_59_3354">
<rect width="16" height="16" fill="white"/>
</clipPath>
</defs>
</svg>
